<?xml version="1.0" encoding="UTF-8"?>
<!DOCTYPE svg PUBLIC "-//W3C//DTD SVG 1.1//EN" "http://www.w3.org/Graphics/SVG/1.1/DTD/svg11.dtd">
<svg width="124mm" height="70mm" viewBox="0 0 12400 7000" version="1.1" xmlns="http://www.w3.org/2000/svg" xmlns:xlink="http://www.w3.org/1999/xlink" stroke-width="28.222" stroke-linejoin="round" xml:space="preserve">
 <path fill="rgb(255,255,255)" stroke="none" d="M 6184,6985 L -13,6985 -13,-13 12381,-13 12381,6985 6184,6985 Z"/>
 <path fill="none" stroke="rgb(179,179,179)" stroke-linejoin="round" d="M 6663,5752 L 1282,5752 1282,256 12045,256 12045,5752 6663,5752 Z"/>
 <path fill="none" stroke="rgb(179,179,179)" stroke-linejoin="round" d="M 1282,5901 L 1282,5751"/>
 <path fill="none" stroke="rgb(179,179,179)" stroke-linejoin="round" d="M 1282,5901 L 1282,5751"/>
 <path fill="none" stroke="rgb(179,179,179)" stroke-linejoin="round" d="M 2627,5901 L 2627,5751"/>
 <path fill="none" stroke="rgb(179,179,179)" stroke-linejoin="round" d="M 2627,5901 L 2627,5751"/>
 <path fill="none" stroke="rgb(179,179,179)" stroke-linejoin="round" d="M 3973,5901 L 3973,5751"/>
 <path fill="none" stroke="rgb(179,179,179)" stroke-linejoin="round" d="M 3973,5901 L 3973,5751"/>
 <path fill="none" stroke="rgb(179,179,179)" stroke-linejoin="round" d="M 5318,5901 L 5318,5751"/>
 <path fill="none" stroke="rgb(179,179,179)" stroke-linejoin="round" d="M 5318,5901 L 5318,5751"/>
 <path fill="none" stroke="rgb(179,179,179)" stroke-linejoin="round" d="M 6663,5901 L 6663,5751"/>
 <path fill="none" stroke="rgb(179,179,179)" stroke-linejoin="round" d="M 6663,5901 L 6663,5751"/>
 <path fill="none" stroke="rgb(179,179,179)" stroke-linejoin="round" d="M 8008,5901 L 8008,5751"/>
 <path fill="none" stroke="rgb(179,179,179)" stroke-linejoin="round" d="M 8008,5901 L 8008,5751"/>
 <path fill="none" stroke="rgb(179,179,179)" stroke-linejoin="round" d="M 9354,5901 L 9354,5751"/>
 <path fill="none" stroke="rgb(179,179,179)" stroke-linejoin="round" d="M 9354,5901 L 9354,5751"/>
 <path fill="none" stroke="rgb(179,179,179)" stroke-linejoin="round" d="M 10699,5901 L 10699,5751"/>
 <path fill="none" stroke="rgb(179,179,179)" stroke-linejoin="round" d="M 10699,5901 L 10699,5751"/>
 <path fill="none" stroke="rgb(179,179,179)" stroke-linejoin="round" d="M 12045,5901 L 12045,5751"/>
 <path fill="none" stroke="rgb(179,179,179)" stroke-linejoin="round" d="M 12045,5901 L 12045,5751"/>
 <path fill="none" stroke="rgb(179,179,179)" stroke-linejoin="round" d="M 1282,5751 L 12045,5751"/>
 <path fill="none" stroke="rgb(179,179,179)" stroke-linejoin="round" d="M 1132,5751 L 1282,5751"/>
 <path fill="none" stroke="rgb(179,179,179)" stroke-linejoin="round" d="M 1132,5751 L 1282,5751"/>
 <path fill="none" stroke="rgb(179,179,179)" stroke-linejoin="round" d="M 1132,4835 L 1282,4835"/>
 <path fill="none" stroke="rgb(179,179,179)" stroke-linejoin="round" d="M 1132,4835 L 1282,4835"/>
 <path fill="none" stroke="rgb(179,179,179)" stroke-linejoin="round" d="M 1132,3919 L 1282,3919"/>
 <path fill="none" stroke="rgb(179,179,179)" stroke-linejoin="round" d="M 1132,3919 L 1282,3919"/>
 <path fill="none" stroke="rgb(179,179,179)" stroke-linejoin="round" d="M 1132,3003 L 1282,3003"/>
 <path fill="none" stroke="rgb(179,179,179)" stroke-linejoin="round" d="M 1132,3003 L 1282,3003"/>
 <path fill="none" stroke="rgb(179,179,179)" stroke-linejoin="round" d="M 1132,2086 L 1282,2086"/>
 <path fill="none" stroke="rgb(179,179,179)" stroke-linejoin="round" d="M 1132,2086 L 1282,2086"/>
 <path fill="none" stroke="rgb(179,179,179)" stroke-linejoin="round" d="M 1132,1171 L 1282,1171"/>
 <path fill="none" stroke="rgb(179,179,179)" stroke-linejoin="round" d="M 1132,1171 L 1282,1171"/>
 <path fill="none" stroke="rgb(179,179,179)" stroke-linejoin="round" d="M 1132,255 L 1282,255"/>
 <path fill="none" stroke="rgb(179,179,179)" stroke-linejoin="round" d="M 1132,255 L 1282,255"/>
 <path fill="none" stroke="rgb(179,179,179)" stroke-linejoin="round" d="M 1282,5751 L 1282,255"/>
 <path fill="none" stroke="rgb(126,0,33)" stroke-width="80" stroke-linejoin="round" d="M 1282,5739 L 1282,5739 1288,5738 1295,5737 1302,5736 1308,5735 1315,5734 1322,5733 1329,5732 1335,5731 1342,5730 1349,5728 1356,5727 1362,5725 1369,5724 1376,5722 1383,5720 1389,5718 1396,5717 1403,5715 1410,5713 1416,5710 1423,5708 1430,5706 1437,5703 1443,5701 1450,5698 1457,5695 1463,5692 1470,5689 1477,5686 1483,5683 1490,5679 1497,5676 1504,5672 1511,5668 1518,5663 1525,5659 1532,5655 1538,5650 1545,5645 1552,5640 1559,5635 1565,5630 1572,5624 1579,5618 1585,5613 1592,5607 1598,5601 1605,5594 1611,5588 1618,5581 1625,5573 1632,5566 1639,5557 1646,5549 1653,5541 1660,5532 1667,5523 1674,5514 1681,5504 1687,5495 1694,5485 1701,5475 1707,5465 1714,5455 1720,5445 1727,5434 1733,5423 1740,5412 1746,5401 1752,5390 1760,5377 1767,5363 1774,5350 1781,5336 1788,5322 1795,5308 1802,5293 1809,5279 1815,5264 1822,5249 1829,5235 1836,5220 1842,5204 1849,5188 1855,5172 1862,5156 1868,5140 1874,5123 1881,5106 1887,5090 1894,5070 1901,5050 1908,5029 1915,5009 1922,4988 1929,4967 1936,4946 1943,4925 1949,4903 1956,4881 1963,4860 1969,4837 1976,4815 1983,4793 1989,4771 1996,4748 2002,4725 2009,4703 2015,4680 2022,4657 2028,4632 2035,4608 2042,4583 2049,4558 2056,4534 2063,4509 2069,4484 2076,4459 2083,4434 2090,4409 2096,4383 2103,4358 2110,4332 2116,4307 2123,4281 2130,4256 2136,4230 2143,4204 2150,4178 2156,4152 2163,4124 2170,4097 2177,4069 2183,4041 2190,4013 2197,3985 2204,3957 2210,3928 2217,3900 2224,3872 2231,3843 2237,3815 2244,3786 2251,3758 2257,3729 2264,3701 2271,3672 2277,3644 2284,3615 2291,3587 2297,3558 2304,3530 2311,3501 2317,3473 2324,3444 2331,3416 2337,3387 2344,3359 2351,3331 2358,3302 2364,3274 2371,3246 2378,3218 2385,3190 2391,3161 2398,3133 2405,3105 2412,3078 2418,3050 2425,3022 2432,2995 2438,2969 2445,2943 2451,2916 2458,2890 2464,2864 2471,2838 2477,2812 2484,2787 2491,2761 2497,2736 2504,2710 2511,2685 2518,2660 2525,2635 2532,2611 2539,2586 2546,2562 2553,2538 2560,2514 2566,2493 2572,2473 2578,2453 2585,2433 2591,2414 2597,2395 2604,2376 2610,2357 2617,2338 2624,2320 2630,2303 2637,2285 2644,2268 2651,2251 2658,2235 2665,2219 2672,2203 2680,2188 2687,2174 2694,2160 2700,2148 2707,2137 2713,2127 2719,2116 2726,2106 2732,2095 2739,2085 2745,2076 2752,2066 2759,2056 2765,2047 2772,2037 2779,2028 2786,2018 2793,2009 2800,1999 2807,1990 2814,1980 2822,1971 2829,1961 2835,1952 2842,1944 2848,1935 2855,1927 2861,1919 2868,1911 2875,1904 2882,1896 2888,1890 2895,1884 2902,1878 2909,1873 2915,1869 2922,1865 2929,1863 2936,1861 2943,1860 2950,1860 2957,1861 2963,1863 2970,1867 2977,1871 2984,1877 2991,1883 2998,1890 3005,1897 3012,1905 3019,1913 3026,1921 3032,1929 3039,1936 3046,1944 3052,1951 3059,1957 3066,1962 3072,1967 3079,1970 3085,1972 3092,1973 3098,1973 3106,1970 3114,1964 3121,1955 3129,1944 3136,1930 3143,1915 3151,1899 3158,1881 3165,1862 3172,1843 3178,1823 3185,1804 3191,1785 3198,1766 3204,1749 3210,1734 3216,1720 3221,1707 3227,1697 3232,1690 3240,1684 3247,1686 3254,1695 3261,1711 3267,1733 3274,1761 3280,1794 3286,1831 3292,1872 3298,1916 3304,1962 3310,2009 3316,2057 3323,2105 3329,2153 3336,2198 3343,2242 3351,2282 3359,2320 3367,2353 3373,2375 3379,2396 3385,2415 3391,2433 3398,2449 3404,2465 3411,2480 3418,2494 3425,2507 3431,2520 3438,2532 3445,2544 3452,2555 3459,2566 3466,2577 3473,2588 3481,2599 3488,2610 3495,2621 3502,2633 3508,2644 3515,2657 3522,2669 3529,2682 3536,2695 3543,2708 3549,2722 3556,2736 3563,2750 3569,2764 3576,2778 3583,2792 3589,2807 3596,2821 3603,2836 3609,2851 3616,2865 3623,2880 3629,2894 3636,2909 3643,2923 3649,2937 3656,2951 3663,2964 3669,2978 3676,2991 3683,3005 3689,3018 3696,3032 3703,3045 3709,3058 3716,3071 3723,3084 3730,3096 3737,3109 3743,3122 3750,3134 3757,3146 3764,3159 3771,3171 3778,3183 3784,3195 3791,3207 3798,3219 3805,3231 3812,3244 3819,3256 3826,3268 3832,3281 3839,3293 3846,3306 3853,3319 3859,3332 3866,3346 3873,3360 3879,3374 3886,3389 3892,3404 3899,3419 3905,3435 3911,3451 3918,3468 3924,3484 3930,3501 3936,3517 3942,3534 3948,3550 3954,3566 3961,3581 3967,3596 3974,3609 3980,3622 3987,3635 3994,3645 4001,3655 4008,3663 4016,3670 4024,3676 4032,3679 4040,3681 4046,3681 4053,3681 4060,3680 4066,3678 4073,3676 4080,3674 4087,3671 4094,3667 4101,3664 4108,3661 4115,3657 4122,3654 4129,3651 4136,3648 4142,3646 4149,3644 4155,3643 4162,3643 4168,3643 4174,3644 4184,3648 4192,3655 4201,3665 4208,3678 4216,3694 4223,3712 4229,3732 4236,3754 4242,3778 4248,3803 4254,3828 4259,3855 4265,3882 4271,3909 4277,3936 4283,3962 4289,3988 4295,4012 4302,4035 4309,4057 4314,4073 4320,4087 4326,4101 4332,4115 4338,4127 4344,4139 4351,4150 4357,4161 4364,4171 4371,4180 4378,4189 4385,4198 4392,4205 4399,4213 4406,4220 4413,4227 4421,4233 4428,4239 4436,4245 4443,4250 4450,4255 4457,4259 4463,4263 4470,4267 4477,4271 4484,4275 4490,4279 4497,4283 4504,4287 4511,4291 4518,4294 4524,4298 4531,4302 4538,4306 4545,4310 4551,4315 4558,4319 4565,4323 4571,4328 4578,4333 4585,4338 4592,4344 4598,4349 4605,4355 4612,4361 4618,4367 4625,4373 4632,4380 4638,4386 4645,4392 4652,4398 4658,4404 4665,4410 4672,4416 4679,4422 4685,4428 4692,4433 4699,4438 4706,4443 4713,4448 4719,4452 4726,4456 4732,4460 4739,4463 4746,4466 4752,4470 4759,4473 4766,4476 4773,4479 4779,4481 4786,4484 4793,4487 4800,4490 4807,4493 4813,4496 4820,4499 4827,4502 4834,4505 4840,4508 4847,4512 4854,4515 4861,4519 4867,4523 4874,4527 4881,4532 4887,4536 4894,4540 4901,4545 4908,4549 4914,4553 4921,4558 4928,4562 4934,4566 4941,4570 4948,4574 4954,4577 4961,4581 4968,4584 4975,4587 4982,4589 4988,4591 4995,4593 5002,4595 5008,4596 5015,4598 5022,4599 5028,4600 5035,4601 5042,4602 5049,4603 5055,4604 5062,4604 5069,4605 5076,4606 5082,4607 5089,4608 5096,4609 5103,4611 5109,4612 5116,4614 5123,4616 5130,4618 5136,4620 5143,4623 5150,4625 5157,4628 5163,4631 5170,4633 5177,4636 5184,4639 5190,4641 5197,4644 5204,4646 5210,4649 5217,4651 5224,4652 5231,4654 5237,4655 5244,4656 5251,4657 5257,4657 5264,4657 5271,4656 5278,4656 5284,4655 5291,4653 5298,4652 5304,4650 5311,4649 5318,4647 5325,4644 5331,4642 5338,4640 5345,4638 5352,4635 5358,4633 5365,4631 5372,4629 5379,4627 5385,4625 5392,4623 5399,4621 5405,4619 5412,4618 5419,4616 5426,4615 5432,4613 5439,4612 5446,4611 5453,4610 5459,4608 5466,4607 5473,4606 5480,4605 5486,4604 5493,4602 5500,4601 5506,4599 5513,4598 5520,4596 5527,4595 5533,4593 5540,4591 5547,4589 5553,4587 5560,4585 5567,4583 5574,4581 5580,4579 5587,4576 5594,4574 5601,4572 5607,4570 5614,4568 5621,4565 5627,4563 5634,4561 5641,4559 5648,4557 5654,4555 5661,4553 5668,4551 5675,4550 5681,4548 5688,4546 5695,4545 5702,4543 5708,4541 5715,4540 5722,4538 5729,4536 5735,4534 5742,4533 5749,4531 5755,4529 5762,4527 5769,4525 5776,4522 5782,4520 5789,4517 5796,4515 5802,4512 5809,4509 5816,4506 5823,4503 5829,4500 5836,4496 5843,4493 5850,4490 5856,4486 5863,4483 5870,4479 5876,4476 5883,4472 5890,4469 5897,4466 5903,4462 5910,4459 5917,4456 5923,4453 5930,4450 5937,4447 5944,4444 5950,4441 5957,4438 5964,4436 5971,4433 5977,4430 5984,4428 5991,4425 5998,4422 6004,4420 6011,4417 6018,4415 6024,4412 6031,4409 6038,4406 6045,4403 6051,4400 6058,4397 6065,4394 6072,4391 6078,4387 6085,4384 6092,4380 6099,4377 6105,4373 6112,4369 6119,4366 6125,4362 6132,4358 6139,4354 6146,4351 6152,4347 6159,4343 6166,4339 6172,4335 6179,4332 6185,4328 6192,4325 6198,4321 6205,4318 6212,4314 6218,4311 6225,4307 6232,4304 6239,4301 6245,4298 6252,4295 6259,4291 6265,4288 6272,4285 6279,4282 6286,4279 6292,4276 6299,4273 6306,4270 6313,4267 6319,4263 6326,4260 6333,4257 6340,4254 6346,4251 6353,4247 6360,4244 6367,4241 6373,4237 6380,4234 6387,4231 6394,4227 6400,4224 6407,4220 6414,4217 6421,4213 6427,4209 6434,4206 6441,4202 6447,4198 6454,4195 6461,4191 6467,4187 6474,4183 6481,4179 6488,4175 6494,4171 6501,4167 6508,4163 6515,4159 6521,4154 6528,4150 6535,4146 6542,4141 6548,4137 6555,4133 6562,4128 6568,4124 6575,4120 6582,4115 6589,4111 6595,4106 6602,4101 6609,4097 6615,4092 6622,4088 6629,4083 6635,4079 6642,4074 6649,4070 6655,4066 6662,4061 6669,4057 6675,4053 6682,4049 6689,4045 6696,4041 6702,4038 6709,4034 6716,4031 6723,4028 6730,4025 6737,4022 6744,4020 6751,4017 6758,4015 6765,4012 6772,4010 6779,4007 6786,4004 6793,4001 6800,3998 6806,3994 6813,3990 6820,3985 6826,3980 6833,3974 6840,3968 6846,3961 6852,3953 6858,3945 6864,3935 6872,3921 6880,3906 6887,3888 6894,3869 6901,3849 6908,3828 6915,3807 6921,3785 6928,3764 6934,3743 6940,3722 6946,3703 6953,3685 6959,3668 6965,3654 6972,3641 6978,3631 6985,3624 6992,3621 6999,3620 7005,3622 7011,3625 7017,3630 7023,3637 7030,3645 7036,3654 7042,3664 7049,3674 7056,3685 7063,3697 7069,3708 7076,3720 7083,3731 7090,3742 7097,3752 7104,3761 7112,3769 7119,3776 7126,3782 7133,3786 7140,3788 7147,3789 7153,3790 7160,3789 7166,3787 7173,3784 7180,3781 7186,3777 7193,3772 7200,3767 7207,3761 7213,3756 7220,3750 7227,3743 7234,3737 7241,3731 7247,3725 7254,3719 7261,3713 7268,3708 7275,3703 7281,3699 7288,3695 7295,3691 7302,3688 7308,3685 7315,3682 7322,3680 7328,3677 7335,3675 7342,3673 7349,3671 7355,3669 7362,3668 7369,3666 7376,3664 7382,3662 7389,3660 7396,3658 7403,3656 7409,3654 7416,3652 7423,3649 7429,3646 7436,3644 7443,3641 7450,3638 7456,3635 7463,3632 7470,3630 7476,3627 7483,3624 7490,3621 7497,3618 7503,3615 7510,3613 7517,3610 7524,3608 7530,3606 7537,3603 7544,3601 7550,3600 7557,3598 7564,3596 7571,3595 7577,3594 7584,3592 7591,3591 7597,3590 7604,3589 7611,3588 7618,3587 7624,3586 7631,3586 7638,3585 7645,3584 7651,3583 7658,3582 7665,3581 7672,3580 7678,3580 7685,3579 7692,3578 7699,3577 7705,3575 7712,3574 7719,3573 7725,3572 7732,3571 7739,3570 7746,3569 7752,3567 7759,3566 7766,3565 7773,3564 7779,3563 7786,3561 7793,3560 7799,3559 7806,3558 7813,3556 7820,3555 7826,3554 7833,3553 7840,3552 7847,3551 7853,3549 7860,3548 7867,3547 7873,3547 7880,3546 7887,3545 7894,3544 7900,3543 7907,3543 7914,3542 7921,3542 7927,3541 7934,3541 7941,3541 7947,3541 7954,3541 7961,3541 7968,3541 7974,3541 7981,3542 7988,3542 7995,3543 8001,3543 8008,3544 8015,3545 8021,3545 8028,3546 8035,3547 8042,3548 8048,3548 8055,3549 8062,3550 8069,3551 8075,3552 8082,3552 8089,3553 8095,3554 8102,3555 8109,3556 8116,3556 8122,3557 8129,3558 8136,3558 8143,3559 8149,3559 8156,3560 8163,3560 8170,3561 8176,3561 8183,3562 8190,3562 8196,3562 8203,3562 8210,3563 8217,3563 8223,3563 8230,3563 8237,3563 8243,3563 8250,3563 8257,3563 8263,3563 8270,3564 8277,3564 8283,3565 8290,3566 8297,3567 8304,3568 8310,3570 8317,3572 8324,3574 8331,3576 8338,3579 8344,3582 8351,3586 8358,3589 8365,3593 8372,3598 8379,3602 8386,3606 8393,3610 8400,3615 8407,3618 8414,3622 8420,3625 8427,3627 8434,3629 8441,3631 8447,3631 8454,3631 8460,3630 8466,3628 8473,3625 8479,3621 8487,3613 8496,3603 8504,3590 8511,3574 8519,3557 8526,3538 8534,3518 8541,3497 8547,3475 8554,3453 8561,3432 8567,3411 8573,3391 8579,3372 8585,3355 8591,3340 8597,3327 8602,3317 8608,3311 8613,3307 8619,3308 8625,3314 8631,3323 8637,3337 8643,3354 8649,3374 8655,3397 8661,3421 8667,3447 8673,3475 8679,3503 8686,3531 8693,3559 8700,3586 8707,3612 8714,3636 8722,3658 8731,3678 8739,3695 8748,3709 8754,3717 8760,3724 8767,3731 8773,3736 8779,3741 8786,3745 8793,3748 8799,3751 8806,3754 8813,3756 8820,3758 8827,3759 8834,3761 8841,3762 8848,3763 8855,3764 8862,3766 8869,3767 8876,3769 8883,3772 8889,3774 8896,3777 8903,3780 8910,3784 8917,3787 8923,3791 8930,3795 8937,3798 8943,3802 8950,3805 8957,3809 8963,3812 8970,3815 8977,3817 8983,3819 8990,3820 8997,3821 9004,3822 9010,3822 9017,3821 9024,3819 9031,3817 9038,3814 9045,3810 9052,3806 9058,3802 9065,3798 9072,3793 9079,3789 9086,3784 9093,3780 9099,3776 9106,3772 9113,3768 9120,3765 9126,3763 9133,3762 9139,3761 9145,3761 9152,3762 9159,3764 9166,3768 9173,3773 9179,3780 9186,3787 9193,3796 9199,3805 9206,3815 9212,3826 9219,3836 9225,3847 9232,3858 9238,3870 9245,3880 9252,3891 9258,3901 9265,3911 9272,3919 9279,3927 9286,3934 9292,3939 9299,3944 9305,3948 9312,3951 9318,3954 9325,3957 9332,3958 9338,3960 9345,3961 9352,3962 9359,3963 9366,3964 9373,3964 9379,3964 9386,3965 9393,3965 9400,3965 9407,3966 9414,3966 9421,3967 9428,3968 9435,3969 9441,3970 9448,3972 9455,3974 9462,3976 9469,3978 9475,3981 9482,3983 9489,3986 9495,3989 9502,3991 9509,3994 9515,3998 9522,4001 9529,4004 9535,4007 9542,4011 9549,4014 9555,4017 9562,4021 9569,4024 9575,4027 9582,4031 9589,4034 9595,4038 9602,4041 9609,4044 9616,4047 9622,4050 9629,4053 9636,4056 9642,4059 9649,4062 9656,4064 9663,4067 9669,4069 9676,4072 9683,4074 9690,4076 9697,4077 9703,4079 9710,4080 9717,4082 9723,4083 9730,4084 9737,4086 9744,4087 9750,4088 9757,4089 9764,4090 9771,4091 9777,4091 9784,4092 9791,4093 9797,4094 9804,4095 9811,4097 9818,4098 9824,4099 9831,4100 9838,4102 9845,4103 9851,4105 9858,4107 9865,4108 9872,4110 9878,4112 9885,4114 9892,4116 9898,4117 9905,4119 9912,4121 9919,4123 9925,4125 9932,4127 9939,4129 9946,4130 9952,4132 9959,4134 9966,4135 9972,4137 9979,4138 9986,4139 9993,4141 9999,4142 10006,4143 10013,4144 10019,4145 10026,4146 10033,4147 10040,4148 10046,4149 10053,4150 10060,4151 10067,4152 10073,4153 10080,4153 10087,4154 10094,4155 10100,4156 10107,4156 10114,4157 10120,4158 10127,4158 10134,4159 10141,4159 10147,4160 10154,4161 10161,4161 10168,4162 10174,4162 10181,4162 10188,4163 10194,4163 10201,4164 10208,4164 10215,4164 10221,4164 10228,4165 10235,4165 10242,4165 10248,4165 10255,4165 10262,4165 10268,4165 10275,4165 10282,4165 10289,4165 10295,4165 10302,4166 10309,4166 10316,4166 10322,4166 10329,4166 10336,4166 10342,4166 10349,4166 10356,4166 10363,4167 10369,4167 10376,4167 10383,4167 10390,4168 10396,4168 10403,4168 10410,4169 10416,4169 10423,4170 10430,4170 10437,4170 10443,4171 10450,4171 10457,4171 10464,4172 10470,4172 10477,4172 10484,4172 10490,4173 10497,4173 10504,4173 10511,4173 10517,4173 10524,4172 10531,4172 10538,4172 10544,4172 10551,4171 10558,4171 10565,4171 10571,4170 10578,4170 10585,4169 10591,4168 10598,4168 10605,4167 10612,4166 10618,4165 10625,4164 10632,4163 10638,4162 10645,4161 10652,4160 10659,4159 10665,4158 10672,4157 10679,4156 10685,4155 10692,4154 10699,4153 10706,4152 10712,4151 10719,4150 10726,4149 10733,4148 10739,4148 10746,4147 10753,4147 10760,4146 10766,4146 10773,4145 10780,4145 10787,4145 10793,4145 10800,4145 10807,4145 10814,4145 10821,4145 10827,4144 10834,4144 10841,4144 10848,4143 10854,4142 10861,4141 10868,4140 10874,4138 10881,4136 10888,4134 10894,4132 10901,4129 10908,4125 10914,4122 10921,4118 10928,4113 10935,4109 10941,4104 10948,4099 10955,4094 10961,4089 10968,4084 10975,4080 10981,4075 10988,4071 10995,4067 11002,4063 11008,4059 11015,4056 11022,4054 11029,4052 11035,4050 11042,4049 11049,4049 11055,4049 11062,4050 11069,4051 11075,4052 11082,4053 11089,4055 11095,4057 11102,4059 11109,4061 11116,4064 11122,4066 11129,4068 11136,4070 11143,4072 11150,4074 11156,4075 11163,4077 11170,4078 11177,4078 11183,4078 11190,4078 11197,4078 11204,4077 11210,4076 11217,4074 11224,4073 11231,4071 11237,4069 11244,4067 11251,4065 11258,4063 11264,4061 11271,4058 11278,4056 11284,4053 11291,4051 11298,4049 11304,4046 11311,4044 11318,4042 11325,4040 11331,4038 11338,4036 11345,4034 11352,4032 11358,4031 11365,4029 11372,4028 11378,4026 11385,4024 11392,4023 11399,4022 11405,4020 11412,4019 11419,4017 11426,4016 11432,4015 11439,4013 11446,4012 11452,4011 11459,4009 11466,4008 11473,4007 11479,4005 11486,4004 11493,4002 11500,4001 11506,4000 11513,3998 11520,3997 11526,3996 11533,3994 11540,3993 11547,3991 11553,3990 11560,3988 11567,3987 11574,3986 11580,3984 11587,3983 11594,3981 11601,3979 11607,3978 11614,3976 11621,3975 11627,3973 11634,3971 11641,3970 11648,3968 11654,3966 11661,3965 11668,3963 11675,3961 11681,3959 11688,3958 11695,3956 11701,3954 11708,3952 11715,3950 11722,3948 11728,3946 11735,3944 11742,3942 11748,3940 11755,3938 11762,3937 11769,3935 11775,3933 11782,3931 11789,3929 11796,3927 11802,3925 11809,3923 11816,3922 11822,3920 11829,3918 11836,3917 11843,3915 11849,3913 11856,3912 11863,3911 11870,3909 11876,3908 11883,3907 11890,3906 11896,3904 11903,3903 11910,3902 11917,3901 11923,3900 11930,3899 11937,3898 11944,3897 11950,3896 11957,3895 11964,3894 11970,3893 11977,3892 11984,3892 11991,3891 11997,3890 12004,3889 12011,3888 12018,3887 12024,3886 12031,3885 12038,3884 12045,3883"/>
 <path fill="none" stroke="rgb(87,157,28)" stroke-width="80" stroke-linejoin="round" d="M 1282,5739 L 1282,5739 1288,5739 1295,5738 1302,5737 1308,5736 1315,5735 1322,5734 1329,5733 1335,5732 1342,5731 1349,5730 1356,5728 1362,5727 1369,5726 1376,5724 1383,5722 1389,5721 1396,5719 1403,5717 1410,5715 1416,5713 1423,5711 1430,5709 1437,5707 1443,5705 1450,5702 1457,5700 1463,5697 1470,5694 1477,5691 1483,5688 1490,5685 1497,5681 1504,5678 1511,5674 1518,5670 1525,5666 1532,5662 1538,5658 1545,5653 1552,5648 1559,5644 1565,5639 1572,5633 1579,5628 1585,5623 1592,5617 1599,5611 1605,5605 1611,5599 1618,5592 1625,5585 1632,5577 1639,5569 1646,5561 1653,5552 1660,5543 1667,5534 1674,5525 1681,5516 1688,5506 1694,5496 1701,5486 1708,5476 1714,5465 1721,5454 1727,5444 1734,5432 1740,5421 1746,5410 1752,5398 1760,5384 1767,5370 1774,5356 1781,5342 1788,5327 1795,5312 1802,5297 1809,5282 1815,5267 1822,5251 1829,5236 1835,5220 1842,5204 1849,5188 1855,5171 1862,5155 1868,5138 1874,5121 1881,5104 1887,5087 1894,5067 1901,5047 1908,5027 1915,5007 1922,4986 1929,4966 1936,4945 1943,4924 1949,4903 1956,4882 1963,4860 1970,4839 1976,4817 1983,4795 1989,4773 1996,4750 2002,4728 2009,4705 2015,4682 2022,4659 2029,4633 2036,4608 2042,4581 2049,4555 2056,4529 2063,4502 2070,4475 2077,4448 2083,4421 2090,4394 2097,4367 2103,4339 2110,4312 2117,4284 2123,4256 2130,4229 2136,4201 2143,4173 2150,4145 2156,4117 2163,4088 2170,4060 2176,4031 2183,4002 2190,3974 2196,3945 2203,3916 2210,3888 2217,3859 2223,3830 2230,3802 2237,3773 2244,3744 2250,3715 2257,3687 2264,3658 2270,3629 2277,3601 2284,3572 2291,3543 2297,3514 2304,3485 2311,3456 2318,3428 2324,3399 2331,3370 2338,3341 2345,3312 2352,3283 2358,3254 2365,3225 2372,3196 2378,3167 2385,3137 2392,3108 2399,3079 2405,3050 2412,3020 2419,2991 2425,2962 2432,2933 2438,2904 2444,2876 2451,2847 2457,2819 2464,2791 2470,2762 2477,2734 2483,2706 2490,2679 2496,2651 2503,2624 2510,2598 2517,2571 2524,2545 2531,2519 2538,2494 2545,2469 2552,2445 2560,2421 2566,2402 2572,2382 2579,2363 2585,2345 2592,2326 2599,2308 2605,2290 2612,2273 2619,2255 2625,2238 2632,2221 2639,2204 2646,2187 2653,2170 2660,2153 2667,2136 2674,2119 2680,2103 2687,2086 2694,2069 2700,2054 2706,2039 2713,2025 2719,2010 2725,1996 2731,1981 2738,1967 2744,1953 2750,1940 2757,1926 2763,1913 2770,1901 2777,1889 2784,1877 2791,1866 2798,1855 2806,1845 2813,1835 2821,1826 2829,1818 2835,1812 2841,1806 2848,1801 2854,1796 2861,1792 2867,1788 2874,1784 2881,1781 2887,1778 2894,1776 2901,1775 2908,1773 2915,1773 2922,1773 2929,1773 2936,1774 2943,1775 2950,1777 2956,1779 2963,1782 2970,1786 2977,1790 2984,1794 2991,1799 2998,1804 3005,1809 3012,1814 3019,1819 3026,1824 3033,1829 3039,1834 3046,1838 3053,1841 3059,1844 3066,1846 3072,1848 3079,1849 3085,1848 3092,1847 3098,1845 3106,1840 3113,1833 3121,1825 3128,1814 3136,1802 3143,1789 3150,1775 3157,1761 3164,1745 3171,1731 3178,1715 3185,1700 3191,1684 3197,1670 3204,1657 3210,1644 3216,1633 3221,1624 3227,1616 3232,1610 3241,1606 3249,1609 3256,1620 3263,1638 3270,1663 3276,1694 3283,1731 3289,1772 3294,1817 3300,1866 3306,1916 3312,1969 3318,2021 3324,2074 3330,2126 3337,2176 3344,2224 3351,2268 3359,2309 3367,2346 3373,2370 3379,2392 3385,2412 3391,2432 3398,2450 3404,2467 3411,2484 3418,2499 3425,2514 3431,2528 3438,2541 3445,2554 3452,2567 3460,2579 3467,2591 3474,2603 3481,2616 3488,2628 3495,2641 3502,2654 3509,2668 3516,2682 3523,2697 3529,2713 3536,2728 3543,2744 3550,2761 3556,2777 3563,2794 3570,2811 3576,2829 3583,2846 3590,2864 3596,2881 3603,2899 3609,2916 3616,2934 3623,2952 3629,2969 3636,2986 3643,3003 3649,3019 3656,3035 3662,3052 3669,3067 3676,3083 3682,3099 3689,3114 3696,3130 3702,3145 3709,3160 3716,3175 3723,3190 3729,3204 3736,3219 3743,3233 3750,3248 3757,3262 3764,3276 3771,3290 3777,3303 3784,3317 3791,3330 3798,3343 3805,3357 3811,3370 3818,3383 3825,3397 3832,3411 3839,3424 3845,3438 3852,3452 3859,3467 3866,3481 3872,3496 3879,3511 3885,3527 3892,3543 3899,3559 3905,3576 3911,3592 3917,3608 3923,3624 3930,3641 3936,3657 3942,3673 3948,3688 3954,3703 3961,3718 3967,3732 3974,3745 3980,3757 3987,3768 3994,3779 4001,3787 4009,3795 4016,3801 4024,3805 4032,3808 4040,3809 4046,3809 4053,3808 4060,3806 4067,3804 4074,3801 4081,3798 4088,3794 4095,3790 4102,3786 4109,3782 4115,3778 4122,3774 4129,3770 4136,3767 4143,3765 4149,3763 4156,3761 4162,3761 4168,3761 4174,3763 4183,3767 4191,3774 4199,3784 4207,3798 4214,3814 4220,3833 4227,3854 4233,3876 4239,3900 4244,3925 4250,3951 4256,3977 4262,4003 4268,4028 4274,4053 4280,4077 4287,4100 4294,4121 4301,4139 4309,4156 4315,4167 4321,4177 4327,4186 4333,4195 4339,4203 4346,4210 4352,4216 4359,4222 4366,4228 4373,4233 4380,4238 4387,4243 4394,4247 4401,4251 4408,4255 4415,4259 4422,4263 4429,4267 4436,4271 4443,4275 4450,4279 4457,4284 4464,4288 4471,4293 4478,4298 4484,4303 4491,4308 4498,4313 4504,4318 4511,4323 4518,4329 4524,4334 4531,4339 4538,4344 4544,4349 4551,4355 4558,4360 4565,4365 4571,4370 4578,4374 4585,4379 4591,4383 4598,4388 4605,4392 4611,4396 4618,4400 4625,4404 4631,4408 4638,4412 4645,4416 4652,4420 4658,4423 4665,4427 4672,4431 4679,4434 4685,4438 4692,4442 4699,4445 4706,4449 4713,4453 4719,4456 4726,4460 4733,4464 4740,4467 4746,4471 4753,4475 4760,4479 4767,4483 4773,4487 4780,4490 4787,4494 4794,4498 4800,4502 4807,4507 4814,4511 4820,4515 4827,4519 4834,4523 4840,4528 4847,4532 4854,4537 4861,4541 4867,4546 4874,4550 4881,4555 4887,4560 4894,4564 4901,4569 4908,4574 4914,4578 4921,4583 4928,4588 4934,4592 4941,4597 4948,4602 4955,4606 4961,4611 4968,4615 4975,4620 4982,4624 4988,4628 4995,4633 5002,4637 5008,4641 5015,4645 5022,4649 5028,4653 5035,4657 5042,4661 5048,4664 5055,4668 5062,4672 5069,4675 5075,4679 5082,4682 5089,4686 5096,4689 5103,4692 5109,4696 5116,4699 5123,4702 5130,4705 5136,4708 5143,4711 5150,4713 5156,4716 5163,4719 5170,4721 5176,4723 5183,4725 5190,4727 5197,4729 5203,4731 5210,4732 5217,4733 5224,4734 5230,4735 5237,4736 5244,4736 5251,4736 5257,4736 5264,4735 5271,4735 5278,4734 5284,4733 5291,4731 5298,4730 5305,4728 5311,4727 5318,4725 5325,4723 5331,4721 5338,4719 5345,4717 5352,4715 5358,4713 5365,4710 5372,4708 5379,4706 5385,4704 5392,4702 5399,4700 5406,4698 5412,4696 5419,4694 5426,4693 5433,4691 5439,4689 5446,4687 5453,4685 5460,4683 5466,4681 5473,4679 5480,4677 5486,4674 5493,4672 5500,4670 5507,4667 5513,4664 5520,4661 5527,4658 5533,4655 5540,4652 5547,4648 5554,4645 5560,4641 5567,4637 5574,4634 5580,4630 5587,4626 5594,4622 5601,4618 5607,4614 5614,4611 5621,4607 5627,4603 5634,4599 5641,4596 5648,4592 5654,4589 5661,4586 5668,4583 5675,4580 5681,4577 5688,4574 5695,4571 5702,4569 5708,4566 5715,4563 5722,4561 5729,4558 5735,4555 5742,4552 5749,4549 5756,4547 5762,4544 5769,4540 5776,4537 5782,4534 5789,4530 5796,4526 5802,4522 5809,4518 5816,4514 5823,4510 5829,4505 5836,4501 5843,4496 5849,4492 5856,4487 5863,4482 5870,4478 5876,4473 5883,4469 5890,4464 5896,4460 5903,4455 5910,4451 5917,4447 5923,4444 5930,4440 5937,4436 5944,4433 5950,4430 5957,4427 5964,4424 5971,4421 5977,4418 5984,4415 5991,4412 5998,4409 6004,4406 6011,4403 6018,4400 6025,4397 6031,4394 6038,4390 6045,4387 6051,4383 6058,4380 6065,4375 6072,4371 6079,4367 6085,4362 6092,4357 6099,4352 6106,4347 6112,4342 6119,4336 6126,4331 6132,4326 6139,4320 6146,4314 6153,4309 6159,4303 6166,4298 6173,4292 6179,4286 6185,4281 6192,4276 6198,4270 6205,4265 6211,4260 6218,4255 6225,4250 6231,4245 6238,4240 6245,4235 6252,4230 6258,4225 6265,4221 6272,4216 6279,4212 6285,4207 6292,4203 6299,4199 6306,4194 6312,4190 6319,4186 6326,4182 6333,4178 6340,4174 6346,4171 6353,4167 6360,4163 6367,4159 6373,4156 6380,4152 6387,4148 6394,4145 6400,4141 6407,4137 6414,4133 6421,4129 6427,4125 6434,4121 6441,4117 6447,4113 6454,4108 6461,4104 6467,4099 6474,4094 6481,4089 6488,4084 6495,4079 6501,4074 6508,4068 6515,4063 6521,4057 6528,4052 6535,4046 6541,4041 6548,4035 6555,4030 6562,4024 6568,4019 6575,4014 6582,4009 6588,4003 6595,3998 6602,3994 6608,3989 6615,3985 6622,3980 6628,3976 6635,3972 6642,3968 6648,3964 6655,3960 6662,3956 6668,3952 6675,3949 6682,3945 6689,3942 6696,3939 6702,3936 6709,3933 6716,3930 6723,3927 6730,3924 6737,3922 6744,3919 6751,3917 6758,3914 6765,3912 6772,3909 6779,3906 6786,3903 6793,3900 6800,3896 6806,3892 6813,3887 6820,3883 6827,3877 6833,3871 6840,3864 6846,3857 6852,3849 6858,3840 6864,3830 6872,3816 6880,3800 6887,3782 6894,3764 6901,3744 6908,3723 6915,3702 6921,3681 6928,3660 6934,3639 6941,3619 6947,3600 6953,3582 6959,3566 6966,3552 6972,3540 6979,3530 6985,3523 6992,3519 6999,3519 7005,3520 7011,3524 7017,3529 7023,3536 7029,3545 7036,3554 7042,3564 7049,3575 7055,3587 7062,3599 7069,3611 7076,3624 7083,3636 7090,3647 7097,3658 7104,3669 7111,3678 7119,3686 7126,3693 7133,3698 7140,3702 7146,3704 7153,3705 7160,3706 7166,3706 7173,3704 7180,3703 7186,3700 7193,3697 7200,3694 7207,3690 7213,3686 7220,3682 7227,3677 7234,3672 7241,3667 7248,3662 7254,3658 7261,3653 7268,3648 7275,3644 7282,3640 7288,3636 7295,3632 7302,3629 7308,3626 7315,3623 7322,3620 7329,3617 7335,3615 7342,3613 7349,3610 7355,3608 7362,3606 7369,3605 7376,3603 7382,3601 7389,3600 7396,3599 7403,3597 7409,3596 7416,3595 7423,3594 7429,3593 7436,3592 7443,3591 7449,3590 7456,3589 7463,3588 7470,3587 7476,3586 7483,3585 7490,3584 7497,3583 7503,3582 7510,3581 7517,3580 7524,3579 7530,3578 7537,3577 7544,3575 7551,3574 7557,3572 7564,3571 7571,3569 7577,3567 7584,3566 7591,3564 7598,3563 7604,3561 7611,3559 7618,3558 7625,3557 7631,3555 7638,3554 7645,3553 7651,3552 7658,3551 7665,3550 7672,3549 7678,3549 7685,3548 7692,3548 7698,3548 7705,3548 7712,3548 7719,3548 7725,3549 7732,3549 7739,3549 7746,3550 7752,3550 7759,3550 7766,3551 7772,3551 7779,3552 7786,3552 7793,3552 7799,3552 7806,3552 7813,3552 7820,3552 7826,3552 7833,3552 7840,3552 7847,3551 7853,3551 7860,3551 7867,3550 7874,3550 7880,3550 7887,3550 7894,3549 7900,3549 7907,3549 7914,3549 7921,3549 7927,3550 7934,3550 7941,3550 7947,3551 7954,3552 7961,3553 7968,3554 7974,3555 7981,3556 7988,3558 7995,3559 8001,3561 8008,3562 8015,3564 8021,3565 8028,3567 8035,3569 8042,3570 8048,3572 8055,3574 8062,3575 8069,3577 8075,3579 8082,3580 8089,3582 8095,3583 8102,3584 8109,3586 8116,3587 8122,3588 8129,3589 8136,3590 8143,3591 8149,3592 8156,3593 8163,3594 8170,3594 8176,3595 8183,3596 8190,3596 8196,3597 8203,3597 8210,3598 8217,3598 8223,3599 8230,3599 8237,3599 8243,3600 8250,3600 8257,3600 8263,3601 8270,3602 8277,3603 8284,3604 8290,3605 8297,3607 8304,3609 8310,3611 8317,3613 8324,3616 8331,3619 8338,3622 8344,3626 8351,3630 8358,3635 8365,3640 8372,3645 8379,3650 8386,3655 8393,3660 8400,3665 8407,3670 8414,3675 8420,3679 8427,3682 8434,3685 8441,3687 8447,3689 8454,3689 8460,3689 8466,3687 8473,3685 8479,3681 8487,3674 8496,3664 8504,3651 8511,3635 8519,3618 8526,3598 8534,3578 8541,3556 8547,3534 8554,3511 8561,3489 8567,3467 8573,3447 8579,3427 8585,3410 8591,3394 8597,3381 8603,3371 8608,3364 8613,3360 8619,3361 8625,3367 8631,3377 8637,3392 8642,3410 8648,3431 8654,3455 8660,3480 8666,3508 8672,3536 8679,3565 8685,3594 8692,3623 8699,3651 8706,3677 8714,3701 8722,3724 8730,3743 8739,3759 8748,3772 8754,3780 8760,3786 8767,3791 8773,3796 8779,3800 8786,3803 8793,3805 8799,3807 8806,3809 8813,3810 8820,3811 8827,3812 8834,3812 8841,3813 8848,3813 8855,3814 8862,3814 8869,3815 8876,3817 8883,3818 8889,3820 8896,3823 8903,3826 8910,3829 8917,3832 8923,3836 8930,3839 8937,3843 8944,3847 8950,3850 8957,3854 8964,3857 8970,3860 8977,3863 8984,3865 8990,3867 8997,3868 9004,3869 9010,3869 9017,3868 9024,3867 9031,3864 9038,3862 9045,3859 9051,3855 9058,3851 9065,3847 9072,3843 9079,3838 9086,3834 9092,3830 9099,3825 9106,3822 9113,3818 9119,3815 9126,3813 9132,3811 9139,3810 9145,3810 9152,3811 9159,3813 9166,3817 9173,3821 9179,3827 9186,3834 9193,3841 9199,3850 9206,3858 9212,3868 9219,3878 9225,3888 9232,3898 9239,3908 9245,3918 9252,3928 9259,3938 9265,3947 9272,3955 9279,3963 9286,3970 9293,3976 9299,3981 9305,3986 9312,3990 9318,3993 9325,3996 9332,3999 9338,4001 9345,4003 9352,4005 9359,4007 9366,4008 9373,4009 9379,4010 9386,4011 9393,4012 9400,4013 9407,4014 9414,4015 9421,4016 9428,4017 9434,4018 9441,4019 9448,4021 9455,4023 9461,4024 9468,4026 9475,4028 9482,4030 9488,4032 9495,4034 9502,4036 9508,4038 9515,4040 9522,4042 9529,4044 9535,4047 9542,4049 9549,4051 9555,4053 9562,4055 9569,4057 9575,4059 9582,4061 9589,4063 9596,4065 9602,4066 9609,4068 9616,4070 9623,4072 9629,4074 9636,4075 9643,4077 9649,4079 9656,4081 9663,4083 9670,4084 9676,4086 9683,4088 9690,4090 9697,4092 9703,4094 9710,4095 9717,4097 9723,4099 9730,4101 9737,4103 9744,4105 9750,4107 9757,4108 9764,4110 9771,4112 9777,4114 9784,4115 9791,4117 9797,4119 9804,4120 9811,4122 9818,4124 9824,4125 9831,4126 9838,4128 9845,4129 9851,4130 9858,4131 9865,4133 9871,4134 9878,4135 9885,4136 9892,4137 9898,4138 9905,4140 9912,4141 9919,4142 9925,4143 9932,4144 9939,4145 9946,4147 9952,4148 9959,4149 9966,4151 9972,4152 9979,4154 9986,4155 9993,4157 9999,4158 10006,4160 10013,4161 10020,4163 10026,4165 10033,4166 10040,4168 10046,4169 10053,4171 10060,4172 10067,4174 10073,4175 10080,4177 10087,4178 10094,4179 10100,4181 10107,4182 10114,4183 10120,4184 10127,4185 10134,4186 10141,4187 10147,4188 10154,4189 10161,4189 10167,4190 10174,4191 10181,4191 10188,4191 10194,4192 10201,4192 10208,4192 10215,4192 10221,4192 10228,4192 10235,4192 10242,4192 10248,4192 10255,4191 10262,4191 10268,4190 10275,4190 10282,4189 10289,4189 10295,4188 10302,4188 10309,4187 10316,4186 10322,4186 10329,4185 10336,4185 10342,4184 10349,4183 10356,4183 10363,4182 10369,4182 10376,4182 10383,4181 10390,4181 10396,4181 10403,4180 10410,4180 10416,4180 10423,4180 10430,4179 10437,4179 10443,4179 10450,4178 10457,4178 10464,4178 10470,4177 10477,4177 10484,4177 10490,4176 10497,4175 10504,4175 10511,4174 10517,4173 10524,4173 10531,4172 10538,4171 10544,4170 10551,4169 10558,4168 10564,4167 10571,4166 10578,4165 10585,4165 10591,4164 10598,4163 10605,4162 10612,4161 10618,4160 10625,4159 10632,4158 10638,4158 10645,4157 10652,4156 10659,4156 10665,4155 10672,4154 10679,4154 10686,4153 10692,4153 10699,4152 10706,4152 10712,4151 10719,4150 10726,4150 10733,4149 10739,4149 10746,4148 10753,4147 10760,4147 10766,4146 10773,4145 10780,4144 10787,4143 10794,4142 10800,4141 10807,4140 10814,4139 10821,4137 10827,4136 10834,4134 10841,4132 10848,4130 10854,4128 10861,4125 10868,4122 10874,4119 10881,4116 10888,4113 10894,4109 10901,4105 10908,4100 10914,4095 10921,4090 10928,4084 10935,4079 10941,4073 10948,4068 10955,4062 10961,4056 10968,4051 10975,4046 10981,4041 10988,4036 10995,4031 11001,4027 11008,4024 11015,4021 11022,4018 11029,4016 11035,4015 11042,4015 11049,4015 11055,4015 11062,4016 11069,4017 11075,4019 11082,4021 11089,4023 11095,4026 11102,4028 11109,4031 11116,4034 11122,4036 11129,4039 11136,4041 11143,4043 11150,4045 11156,4047 11163,4048 11170,4049 11177,4049 11183,4049 11190,4048 11197,4047 11204,4046 11210,4044 11217,4042 11224,4040 11231,4038 11237,4035 11244,4032 11251,4029 11257,4026 11264,4023 11271,4020 11278,4017 11284,4014 11291,4011 11298,4008 11304,4005 11311,4003 11318,4000 11325,3998 11331,3996 11338,3993 11345,3991 11351,3990 11358,3988 11365,3986 11372,3984 11378,3983 11385,3981 11392,3980 11399,3979 11405,3977 11412,3976 11419,3975 11426,3973 11432,3972 11439,3971 11446,3969 11452,3968 11459,3967 11466,3965 11473,3964 11479,3962 11486,3961 11493,3959 11500,3958 11506,3956 11513,3955 11520,3953 11527,3952 11533,3950 11540,3949 11547,3947 11553,3945 11560,3944 11567,3942 11574,3940 11580,3939 11587,3937 11594,3935 11601,3933 11607,3932 11614,3930 11621,3928 11627,3926 11634,3924 11641,3922 11648,3921 11654,3919 11661,3917 11668,3915 11675,3913 11681,3911 11688,3909 11695,3907 11701,3905 11708,3904 11715,3902 11722,3900 11728,3898 11735,3896 11742,3894 11748,3892 11755,3890 11762,3889 11769,3887 11775,3885 11782,3883 11789,3882 11795,3880 11802,3879 11809,3877 11816,3875 11822,3874 11829,3873 11836,3871 11843,3870 11849,3869 11856,3868 11863,3867 11870,3866 11876,3865 11883,3864 11890,3863 11896,3862 11903,3861 11910,3860 11917,3859 11923,3859 11930,3858 11937,3857 11944,3856 11950,3855 11957,3855 11964,3854 11970,3853 11977,3852 11984,3851 11991,3851 11997,3850 12004,3849 12011,3848 12018,3847 12024,3846 12031,3845 12038,3843 12045,3842"/>
 <path fill="none" stroke="rgb(255,211,32)" stroke-width="80" stroke-linejoin="round" d="M 1282,5741 L 1288,5741 1295,5740 1302,5739 1308,5739 1315,5738 1322,5737 1329,5736 1335,5735 1342,5734 1349,5733 1356,5732 1362,5731 1369,5730 1376,5729 1383,5728 1389,5726 1396,5725 1403,5724 1410,5722 1417,5720 1423,5719 1430,5717 1437,5715 1443,5712 1450,5710 1457,5708 1463,5705 1470,5702 1477,5700 1483,5696 1490,5693 1497,5689 1504,5686 1511,5682 1518,5677 1525,5673 1532,5668 1538,5664 1545,5659 1552,5654 1559,5648 1565,5643 1572,5637 1579,5631 1585,5626 1592,5620 1598,5613 1605,5607 1611,5601 1618,5594 1625,5586 1632,5579 1639,5571 1646,5563 1653,5555 1660,5547 1667,5538 1674,5529 1681,5520 1688,5511 1694,5502 1701,5493 1708,5483 1714,5473 1721,5463 1727,5453 1734,5443 1740,5432 1746,5421 1752,5410 1760,5396 1767,5382 1774,5368 1782,5353 1789,5339 1796,5323 1803,5308 1809,5292 1816,5276 1823,5260 1830,5243 1836,5227 1843,5210 1849,5193 1856,5175 1862,5157 1868,5139 1875,5121 1881,5103 1887,5084 1894,5062 1901,5040 1908,5018 1915,4996 1922,4973 1929,4950 1936,4927 1943,4904 1949,4880 1956,4857 1963,4833 1969,4809 1976,4785 1983,4761 1989,4736 1996,4712 2002,4687 2009,4662 2015,4638 2022,4613 2028,4586 2035,4559 2042,4532 2049,4505 2056,4478 2062,4451 2069,4424 2076,4397 2083,4370 2089,4342 2096,4315 2103,4287 2110,4260 2116,4232 2123,4204 2130,4177 2136,4149 2143,4121 2149,4093 2156,4065 2163,4036 2170,4007 2177,3978 2183,3949 2190,3920 2197,3891 2204,3862 2211,3832 2217,3803 2224,3773 2231,3744 2238,3714 2244,3684 2251,3655 2258,3625 2264,3595 2271,3565 2277,3534 2284,3504 2291,3474 2297,3443 2304,3412 2310,3381 2317,3349 2324,3318 2330,3287 2337,3256 2343,3225 2350,3194 2357,3163 2363,3132 2370,3102 2377,3071 2383,3041 2390,3011 2397,2981 2404,2951 2411,2922 2418,2893 2425,2864 2432,2839 2438,2814 2444,2790 2451,2765 2458,2741 2464,2717 2471,2693 2478,2669 2484,2645 2491,2622 2498,2599 2505,2576 2511,2553 2518,2530 2525,2507 2532,2484 2539,2461 2546,2439 2553,2416 2560,2394 2566,2374 2572,2354 2578,2334 2584,2315 2591,2295 2597,2276 2603,2257 2610,2238 2616,2219 2623,2201 2630,2183 2636,2166 2643,2149 2650,2132 2657,2116 2664,2100 2672,2085 2679,2070 2687,2056 2694,2042 2700,2032 2706,2023 2712,2013 2719,2004 2725,1996 2731,1987 2738,1979 2744,1972 2751,1964 2758,1957 2764,1950 2771,1944 2778,1937 2785,1931 2792,1926 2800,1920 2807,1915 2814,1910 2821,1906 2829,1901 2836,1898 2842,1894 2849,1891 2856,1889 2863,1886 2869,1884 2876,1883 2883,1881 2890,1880 2897,1880 2904,1880 2910,1881 2917,1882 2924,1884 2931,1886 2937,1889 2944,1893 2951,1898 2957,1903 2963,1908 2971,1916 2978,1925 2985,1935 2992,1945 2999,1956 3006,1968 3013,1979 3019,1991 3026,2003 3033,2014 3039,2025 3046,2035 3052,2045 3059,2054 3065,2061 3072,2068 3078,2073 3085,2076 3091,2078 3098,2078 3105,2076 3112,2071 3119,2065 3126,2056 3133,2047 3140,2036 3147,2023 3154,2011 3161,1997 3168,1983 3175,1969 3182,1955 3189,1941 3195,1928 3202,1916 3208,1904 3214,1894 3221,1885 3227,1878 3232,1873 3241,1869 3250,1871 3258,1880 3265,1897 3272,1919 3279,1948 3285,1981 3291,2019 3297,2060 3302,2104 3308,2150 3314,2197 3319,2245 3325,2293 3331,2340 3338,2386 3344,2429 3352,2470 3359,2507 3367,2541 3373,2562 3379,2583 3385,2602 3391,2620 3398,2636 3404,2652 3411,2667 3417,2681 3424,2694 3431,2707 3438,2719 3445,2731 3452,2742 3459,2754 3466,2765 3473,2776 3481,2787 3488,2798 3495,2810 3502,2822 3509,2834 3515,2847 3522,2860 3529,2873 3536,2887 3542,2901 3549,2916 3556,2930 3562,2945 3569,2960 3576,2975 3582,2989 3589,3004 3595,3019 3602,3034 3609,3049 3616,3064 3622,3078 3629,3093 3636,3107 3643,3119 3649,3132 3655,3144 3662,3156 3669,3168 3675,3180 3682,3191 3689,3203 3695,3214 3702,3225 3709,3236 3716,3247 3722,3257 3729,3267 3736,3278 3743,3288 3750,3298 3757,3308 3764,3317 3771,3327 3777,3336 3784,3345 3791,3354 3798,3364 3805,3373 3811,3382 3818,3391 3825,3400 3832,3410 3838,3419 3845,3429 3852,3439 3859,3449 3865,3459 3872,3470 3879,3481 3885,3492 3892,3504 3899,3516 3905,3528 3912,3541 3918,3554 3924,3567 3931,3580 3937,3593 3944,3606 3950,3619 3957,3631 3963,3643 3970,3654 3976,3665 3983,3675 3990,3684 3997,3691 4004,3698 4011,3704 4018,3708 4025,3711 4032,3712 4040,3711 4047,3710 4053,3707 4060,3703 4067,3698 4074,3693 4081,3687 4088,3681 4095,3674 4102,3667 4109,3660 4116,3653 4123,3646 4130,3640 4136,3634 4143,3629 4150,3624 4156,3621 4162,3618 4168,3617 4174,3617 4183,3619 4191,3624 4198,3634 4205,3646 4212,3662 4218,3681 4225,3702 4231,3724 4237,3749 4243,3774 4248,3800 4254,3827 4260,3854 4266,3880 4273,3906 4279,3930 4286,3953 4293,3974 4301,3993 4309,4010 4315,4021 4321,4030 4327,4039 4333,4048 4340,4055 4346,4062 4353,4069 4360,4074 4367,4080 4373,4085 4380,4089 4387,4094 4394,4098 4401,4102 4408,4106 4416,4110 4423,4115 4430,4119 4437,4124 4443,4128 4450,4134 4457,4139 4464,4145 4471,4152 4478,4158 4485,4165 4491,4172 4498,4179 4505,4186 4511,4193 4518,4201 4525,4208 4531,4216 4538,4223 4544,4231 4551,4238 4558,4245 4564,4252 4571,4259 4578,4266 4585,4272 4591,4278 4598,4284 4604,4290 4611,4295 4618,4301 4624,4306 4631,4312 4638,4317 4645,4322 4652,4327 4658,4332 4665,4337 4672,4342 4679,4347 4685,4352 4692,4357 4699,4362 4706,4368 4713,4373 4719,4378 4726,4384 4733,4389 4739,4395 4746,4401 4753,4406 4760,4412 4766,4418 4773,4423 4780,4429 4786,4435 4793,4441 4800,4446 4806,4452 4813,4457 4820,4463 4827,4468 4833,4473 4840,4479 4847,4484 4854,4488 4860,4493 4867,4497 4874,4502 4880,4506 4887,4511 4894,4515 4900,4519 4907,4523 4914,4527 4921,4531 4927,4535 4934,4539 4941,4543 4948,4546 4955,4550 4961,4554 4968,4558 4975,4562 4982,4566 4988,4570 4995,4574 5002,4578 5008,4582 5015,4586 5022,4590 5028,4594 5035,4597 5042,4601 5049,4605 5055,4609 5062,4612 5069,4616 5075,4620 5082,4623 5089,4626 5096,4629 5103,4633 5109,4636 5116,4638 5123,4641 5129,4643 5136,4646 5143,4648 5150,4650 5156,4652 5163,4653 5170,4655 5176,4656 5183,4657 5190,4658 5197,4659 5203,4660 5210,4660 5217,4661 5224,4661 5230,4661 5237,4660 5244,4660 5251,4659 5258,4658 5264,4657 5271,4656 5278,4655 5285,4653 5291,4651 5298,4650 5305,4648 5311,4646 5318,4644 5325,4641 5332,4639 5338,4637 5345,4634 5352,4632 5358,4630 5365,4627 5372,4625 5379,4623 5385,4620 5392,4618 5399,4616 5405,4614 5412,4612 5419,4609 5426,4607 5432,4605 5439,4603 5446,4601 5453,4599 5459,4597 5466,4596 5473,4594 5479,4592 5486,4590 5493,4588 5500,4586 5506,4584 5513,4582 5520,4580 5527,4578 5533,4576 5540,4574 5547,4572 5554,4569 5560,4567 5567,4565 5574,4563 5581,4561 5587,4558 5594,4556 5601,4553 5607,4551 5614,4549 5621,4546 5628,4543 5634,4541 5641,4538 5648,4535 5654,4533 5661,4530 5668,4527 5675,4524 5681,4521 5688,4518 5695,4515 5702,4512 5708,4509 5715,4505 5722,4502 5728,4499 5735,4496 5742,4493 5749,4489 5755,4486 5762,4483 5769,4480 5775,4477 5782,4474 5789,4471 5796,4468 5802,4465 5809,4462 5816,4459 5823,4456 5829,4453 5836,4450 5843,4447 5849,4445 5856,4442 5863,4439 5870,4436 5876,4433 5883,4431 5890,4428 5897,4425 5903,4422 5910,4419 5917,4417 5923,4414 5930,4411 5937,4408 5944,4405 5950,4402 5957,4399 5964,4396 5971,4393 5977,4390 5984,4387 5991,4384 5998,4381 6004,4378 6011,4375 6018,4372 6025,4369 6031,4366 6038,4362 6045,4359 6051,4356 6058,4352 6065,4349 6072,4346 6078,4342 6085,4339 6092,4335 6099,4331 6105,4328 6112,4324 6119,4321 6125,4317 6132,4313 6139,4310 6146,4306 6152,4302 6159,4298 6166,4295 6172,4291 6179,4287 6185,4283 6192,4279 6198,4276 6205,4272 6212,4268 6218,4264 6225,4260 6232,4256 6239,4253 6245,4249 6252,4245 6259,4241 6266,4237 6272,4233 6279,4230 6286,4226 6292,4222 6299,4218 6306,4214 6313,4211 6319,4207 6326,4203 6333,4199 6340,4196 6346,4192 6353,4188 6360,4184 6366,4181 6373,4177 6380,4173 6387,4170 6393,4166 6400,4163 6407,4159 6413,4155 6420,4152 6427,4148 6434,4145 6440,4141 6447,4138 6454,4134 6461,4131 6467,4127 6474,4124 6481,4121 6488,4117 6495,4114 6501,4110 6508,4107 6515,4103 6522,4100 6528,4096 6535,4093 6542,4089 6549,4085 6555,4082 6562,4078 6569,4074 6575,4070 6582,4065 6589,4061 6595,4057 6602,4052 6609,4047 6615,4043 6622,4038 6628,4033 6635,4028 6642,4023 6648,4019 6655,4014 6662,4009 6668,4005 6675,4000 6682,3996 6689,3992 6695,3988 6702,3985 6709,3982 6716,3979 6723,3976 6730,3974 6737,3972 6744,3970 6751,3968 6757,3967 6764,3966 6771,3965 6778,3963 6785,3962 6792,3960 6799,3959 6806,3956 6813,3954 6820,3951 6826,3947 6833,3943 6839,3939 6846,3933 6852,3927 6858,3920 6864,3913 6872,3900 6880,3886 6888,3870 6895,3852 6902,3832 6909,3812 6916,3791 6922,3769 6929,3747 6935,3726 6941,3705 6948,3685 6954,3667 6960,3649 6966,3634 6973,3621 6979,3611 6985,3603 6992,3598 6999,3597 7005,3599 7011,3602 7017,3608 7023,3615 7029,3623 7036,3633 7042,3643 7049,3654 7055,3666 7062,3678 7069,3691 7076,3703 7083,3715 7090,3727 7097,3738 7104,3748 7111,3758 7119,3766 7126,3772 7133,3777 7140,3780 7146,3782 7153,3783 7160,3783 7166,3782 7173,3780 7180,3778 7186,3775 7193,3771 7200,3767 7207,3763 7213,3758 7220,3753 7227,3748 7234,3743 7241,3738 7247,3732 7254,3728 7261,3723 7268,3718 7275,3714 7281,3711 7288,3708 7295,3705 7302,3702 7308,3700 7315,3697 7322,3695 7329,3694 7335,3692 7342,3690 7349,3689 7356,3688 7362,3686 7369,3685 7376,3684 7382,3683 7389,3681 7396,3680 7403,3679 7409,3677 7416,3675 7423,3674 7429,3672 7436,3670 7443,3668 7450,3666 7456,3664 7463,3662 7470,3660 7476,3657 7483,3655 7490,3653 7497,3651 7503,3648 7510,3646 7517,3644 7524,3642 7530,3640 7537,3638 7544,3636 7550,3634 7557,3632 7564,3630 7571,3628 7577,3627 7584,3625 7591,3624 7597,3622 7604,3621 7611,3620 7618,3618 7624,3617 7631,3616 7638,3615 7645,3615 7651,3614 7658,3613 7665,3613 7672,3613 7678,3612 7685,3612 7692,3612 7699,3612 7705,3612 7712,3613 7719,3613 7725,3613 7732,3613 7739,3613 7746,3613 7752,3614 7759,3614 7766,3614 7773,3613 7779,3613 7786,3613 7793,3612 7799,3612 7806,3611 7813,3610 7820,3608 7826,3607 7833,3606 7840,3604 7847,3602 7853,3601 7860,3599 7867,3597 7874,3595 7880,3594 7887,3592 7894,3590 7900,3589 7907,3588 7914,3586 7921,3585 7927,3584 7934,3584 7941,3583 7947,3583 7954,3583 7961,3583 7968,3583 7974,3584 7981,3585 7988,3586 7994,3587 8001,3588 8008,3589 8015,3590 8021,3592 8028,3593 8035,3594 8042,3596 8048,3597 8055,3599 8062,3600 8069,3601 8075,3603 8082,3604 8089,3605 8096,3606 8102,3607 8109,3608 8116,3609 8123,3609 8129,3610 8136,3611 8143,3611 8149,3612 8156,3612 8163,3613 8170,3613 8176,3614 8183,3614 8190,3615 8196,3615 8203,3616 8210,3616 8217,3617 8223,3617 8230,3618 8237,3618 8243,3619 8250,3619 8257,3620 8263,3621 8270,3622 8277,3623 8283,3624 8290,3626 8297,3627 8303,3629 8310,3631 8317,3633 8324,3635 8331,3638 8337,3640 8344,3643 8351,3646 8358,3650 8365,3653 8372,3657 8379,3660 8386,3664 8393,3667 8400,3670 8407,3673 8413,3675 8420,3677 8427,3678 8434,3679 8440,3680 8447,3679 8454,3678 8460,3676 8466,3673 8473,3669 8479,3664 8487,3655 8496,3643 8504,3629 8512,3613 8519,3595 8527,3575 8534,3555 8541,3533 8548,3511 8555,3489 8561,3468 8567,3447 8574,3427 8580,3408 8586,3391 8591,3377 8597,3364 8603,3355 8608,3349 8613,3346 8619,3348 8625,3354 8631,3364 8637,3379 8642,3397 8648,3418 8654,3441 8660,3466 8666,3493 8672,3521 8679,3549 8685,3577 8692,3605 8699,3632 8706,3658 8714,3682 8722,3703 8730,3722 8739,3738 8748,3751 8754,3758 8760,3764 8767,3769 8773,3774 8779,3777 8786,3780 8793,3782 8799,3784 8806,3786 8813,3787 8820,3787 8827,3788 8834,3788 8841,3788 8848,3788 8855,3789 8862,3789 8869,3790 8876,3790 8883,3792 8889,3793 8896,3795 8903,3798 8910,3800 8917,3803 8923,3806 8930,3809 8937,3813 8944,3816 8950,3819 8957,3822 8964,3824 8970,3827 8977,3829 8984,3831 8990,3832 8997,3833 9004,3834 9010,3834 9017,3833 9024,3832 9031,3829 9038,3827 9044,3824 9051,3820 9058,3816 9065,3812 9072,3808 9079,3804 9086,3800 9092,3796 9099,3792 9106,3789 9113,3785 9119,3783 9126,3780 9132,3779 9139,3778 9145,3778 9152,3779 9159,3781 9166,3784 9172,3788 9179,3793 9186,3799 9193,3806 9199,3814 9206,3823 9212,3831 9219,3840 9226,3850 9232,3860 9239,3869 9245,3879 9252,3888 9259,3898 9265,3906 9272,3915 9279,3923 9286,3930 9293,3936 9299,3941 9305,3946 9312,3950 9319,3954 9325,3958 9332,3961 9339,3964 9345,3966 9352,3968 9359,3970 9366,3972 9373,3974 9379,3975 9386,3976 9393,3978 9400,3979 9407,3980 9414,3981 9421,3982 9428,3983 9434,3984 9441,3985 9448,3986 9455,3987 9461,3988 9468,3989 9475,3991 9482,3992 9488,3993 9495,3995 9502,3996 9508,3998 9515,3999 9522,4001 9529,4002 9535,4004 9542,4006 9549,4008 9555,4010 9562,4012 9569,4014 9576,4016 9582,4018 9589,4020 9596,4022 9602,4024 9609,4027 9616,4029 9623,4031 9629,4033 9636,4036 9643,4038 9649,4040 9656,4042 9663,4045 9670,4047 9676,4049 9683,4051 9690,4053 9697,4055 9703,4057 9710,4059 9717,4060 9723,4062 9730,4064 9737,4065 9744,4067 9750,4069 9757,4070 9764,4072 9771,4073 9777,4075 9784,4076 9791,4077 9797,4079 9804,4080 9811,4081 9818,4083 9824,4084 9831,4085 9838,4087 9845,4088 9851,4089 9858,4091 9865,4092 9871,4093 9878,4094 9885,4096 9892,4097 9898,4098 9905,4099 9912,4101 9919,4102 9925,4103 9932,4104 9939,4105 9946,4106 9952,4107 9959,4108 9966,4110 9972,4111 9979,4112 9986,4112 9993,4113 9999,4114 10006,4115 10013,4116 10019,4117 10026,4118 10033,4119 10040,4120 10046,4120 10053,4121 10060,4122 10067,4123 10073,4124 10080,4124 10087,4125 10094,4126 10100,4127 10107,4127 10114,4128 10120,4129 10127,4129 10134,4130 10141,4131 10147,4131 10154,4132 10161,4133 10168,4133 10174,4134 10181,4134 10188,4135 10194,4135 10201,4136 10208,4136 10215,4136 10221,4136 10228,4137 10235,4137 10242,4137 10248,4137 10255,4137 10262,4137 10268,4137 10275,4137 10282,4137 10289,4137 10295,4137 10302,4137 10309,4137 10316,4138 10322,4138 10329,4138 10336,4138 10342,4138 10349,4138 10356,4139 10363,4139 10369,4140 10376,4140 10383,4141 10390,4142 10396,4142 10403,4143 10410,4144 10416,4145 10423,4145 10430,4146 10437,4147 10443,4147 10450,4148 10457,4149 10464,4149 10470,4150 10477,4150 10484,4150 10490,4150 10497,4150 10504,4150 10511,4150 10517,4150 10524,4150 10531,4149 10538,4149 10544,4148 10551,4147 10558,4146 10564,4146 10571,4145 10578,4144 10585,4143 10591,4142 10598,4141 10605,4140 10612,4139 10618,4137 10625,4136 10632,4135 10638,4134 10645,4133 10652,4132 10659,4131 10665,4130 10672,4129 10679,4128 10685,4127 10692,4126 10699,4125 10706,4124 10712,4123 10719,4123 10726,4122 10733,4121 10739,4120 10746,4120 10753,4119 10760,4119 10766,4118 10773,4118 10780,4117 10787,4117 10793,4116 10800,4116 10807,4115 10814,4115 10820,4114 10827,4113 10834,4113 10841,4112 10847,4111 10854,4109 10861,4108 10868,4106 10874,4104 10881,4102 10888,4100 10894,4097 10901,4094 10908,4091 10914,4087 10921,4083 10928,4079 10935,4074 10941,4070 10948,4065 10955,4060 10961,4056 10968,4051 10975,4047 10982,4043 10988,4039 10995,4035 11002,4032 11008,4029 11015,4026 11022,4024 11029,4022 11035,4021 11042,4020 11049,4020 11055,4020 11062,4021 11069,4022 11075,4024 11082,4025 11089,4027 11095,4029 11102,4032 11109,4034 11116,4036 11123,4039 11129,4041 11136,4043 11143,4045 11150,4047 11156,4049 11163,4050 11170,4051 11177,4052 11183,4052 11190,4052 11197,4052 11204,4051 11210,4050 11217,4049 11224,4048 11231,4046 11237,4045 11244,4043 11251,4041 11257,4039 11264,4037 11271,4035 11278,4033 11284,4031 11291,4029 11298,4027 11304,4025 11311,4023 11318,4021 11325,4020 11331,4018 11338,4017 11345,4015 11352,4014 11358,4012 11365,4011 11372,4010 11378,4009 11385,4007 11392,4006 11399,4005 11405,4004 11412,4003 11419,4002 11426,4001 11432,3999 11439,3998 11446,3997 11452,3996 11459,3995 11466,3994 11473,3992 11479,3991 11486,3990 11493,3989 11500,3987 11506,3986 11513,3985 11520,3983 11526,3982 11533,3981 11540,3979 11547,3978 11553,3977 11560,3975 11567,3974 11574,3973 11580,3971 11587,3970 11594,3969 11600,3967 11607,3966 11614,3965 11621,3963 11627,3962 11634,3961 11641,3959 11648,3958 11654,3957 11661,3955 11668,3954 11674,3953 11681,3951 11688,3950 11695,3949 11701,3948 11708,3946 11715,3945 11722,3944 11728,3942 11735,3941 11742,3940 11748,3938 11755,3937 11762,3936 11769,3934 11775,3933 11782,3932 11789,3931 11796,3929 11802,3928 11809,3927 11816,3925 11822,3924 11829,3923 11836,3922 11843,3920 11849,3919 11856,3918 11863,3917 11870,3915 11876,3914 11883,3913 11890,3912 11896,3911 11903,3909 11910,3908 11917,3907 11923,3906 11930,3905 11937,3903 11944,3902 11950,3901 11957,3900 11964,3899 11970,3898 11977,3896 11984,3895 11991,3894 11997,3893 12004,3892 12011,3891 12018,3890 12024,3889 12031,3888 12038,3886 12044,3885 12045,3885"/>
 <path fill="none" stroke="rgb(255,66,14)" stroke-width="80" stroke-linejoin="round" d="M 1282,5744 L 1288,5743 1295,5743 1302,5742 1308,5742 1315,5741 1322,5740 1329,5740 1335,5739 1342,5738 1349,5737 1356,5737 1362,5736 1369,5735 1376,5734 1383,5733 1389,5732 1396,5731 1403,5730 1410,5728 1416,5727 1423,5725 1430,5724 1437,5722 1443,5720 1450,5719 1457,5717 1463,5714 1470,5712 1477,5710 1483,5707 1490,5704 1497,5701 1504,5698 1511,5695 1518,5691 1525,5688 1532,5684 1538,5680 1545,5676 1552,5671 1559,5667 1565,5662 1572,5657 1579,5652 1585,5647 1592,5642 1598,5636 1605,5631 1611,5625 1618,5619 1625,5612 1632,5605 1639,5597 1646,5590 1653,5582 1660,5574 1667,5566 1674,5557 1681,5549 1688,5540 1695,5531 1701,5521 1708,5512 1714,5502 1721,5492 1727,5482 1734,5471 1740,5460 1746,5449 1752,5438 1760,5424 1767,5410 1775,5395 1782,5380 1789,5364 1796,5349 1803,5333 1810,5316 1817,5300 1823,5283 1830,5265 1836,5248 1843,5231 1849,5213 1856,5195 1862,5176 1868,5158 1875,5139 1881,5120 1887,5100 1894,5078 1901,5055 1908,5031 1915,5008 1922,4984 1929,4960 1936,4936 1943,4912 1949,4887 1956,4863 1963,4838 1970,4813 1976,4788 1983,4762 1989,4737 1996,4711 2002,4685 2009,4659 2015,4633 2022,4607 2028,4578 2035,4549 2042,4520 2049,4491 2056,4462 2063,4433 2069,4403 2076,4374 2083,4345 2089,4315 2096,4285 2103,4256 2109,4226 2116,4196 2123,4166 2129,4136 2136,4106 2143,4077 2149,4047 2156,4017 2163,3987 2170,3957 2176,3927 2183,3897 2190,3867 2197,3837 2203,3807 2210,3777 2217,3746 2224,3716 2230,3686 2237,3656 2244,3626 2251,3596 2257,3566 2264,3536 2271,3505 2277,3475 2284,3444 2291,3414 2297,3384 2304,3354 2310,3323 2317,3293 2323,3263 2330,3233 2336,3203 2343,3173 2350,3143 2356,3114 2363,3084 2370,3055 2376,3026 2383,2997 2390,2968 2397,2940 2404,2911 2411,2884 2418,2856 2425,2829 2432,2806 2438,2783 2444,2760 2451,2737 2457,2715 2464,2693 2471,2671 2477,2649 2484,2628 2491,2606 2497,2585 2504,2564 2511,2543 2518,2522 2525,2501 2532,2481 2539,2460 2546,2440 2553,2419 2560,2399 2566,2382 2572,2364 2578,2347 2584,2330 2590,2313 2597,2297 2603,2281 2609,2265 2616,2249 2622,2233 2629,2218 2636,2204 2643,2190 2650,2176 2657,2163 2664,2150 2671,2138 2679,2127 2686,2116 2694,2106 2700,2098 2707,2091 2713,2084 2719,2078 2726,2072 2732,2066 2739,2060 2746,2055 2752,2050 2759,2046 2766,2041 2773,2037 2780,2033 2787,2029 2793,2026 2801,2022 2808,2019 2815,2016 2822,2014 2829,2011 2836,2009 2842,2007 2849,2005 2856,2003 2863,2002 2869,2000 2876,1999 2883,1999 2890,1999 2896,1999 2903,1999 2910,2000 2917,2001 2923,2003 2930,2005 2937,2007 2943,2010 2950,2014 2957,2018 2963,2023 2970,2029 2977,2035 2984,2042 2991,2049 2998,2056 3005,2064 3012,2072 3019,2079 3026,2087 3032,2094 3039,2101 3046,2107 3052,2113 3059,2118 3066,2122 3072,2126 3079,2128 3085,2129 3092,2128 3098,2127 3106,2123 3113,2116 3121,2108 3128,2097 3136,2085 3143,2071 3150,2057 3157,2041 3164,2025 3171,2008 3178,1991 3185,1975 3191,1959 3197,1943 3204,1929 3210,1916 3216,1904 3221,1894 3227,1886 3232,1881 3241,1877 3248,1881 3255,1893 3262,1913 3268,1940 3274,1973 3280,2011 3285,2055 3291,2101 3296,2151 3302,2202 3307,2254 3313,2307 3320,2358 3326,2408 3333,2455 3341,2498 3349,2538 3358,2573 3367,2603 3373,2620 3379,2636 3385,2650 3391,2663 3398,2676 3404,2687 3411,2698 3418,2708 3425,2717 3431,2726 3438,2734 3445,2742 3452,2750 3460,2757 3467,2765 3474,2772 3481,2779 3488,2787 3495,2794 3502,2802 3509,2811 3516,2821 3523,2830 3530,2840 3537,2851 3544,2862 3551,2873 3557,2885 3564,2896 3571,2908 3577,2921 3584,2933 3591,2946 3597,2959 3604,2972 3610,2985 3617,2998 3623,3011 3630,3024 3636,3037 3643,3050 3649,3063 3656,3077 3662,3090 3669,3103 3675,3115 3682,3128 3689,3141 3695,3153 3702,3166 3709,3178 3715,3190 3722,3201 3729,3213 3736,3224 3743,3235 3750,3246 3757,3257 3764,3267 3771,3277 3777,3286 3784,3295 3791,3304 3798,3313 3805,3322 3811,3330 3818,3339 3825,3347 3832,3356 3839,3365 3846,3374 3852,3383 3859,3392 3866,3402 3873,3412 3879,3423 3886,3434 3892,3445 3899,3457 3905,3469 3912,3482 3918,3496 3925,3511 3931,3525 3937,3540 3944,3555 3950,3569 3956,3584 3963,3598 3969,3611 3976,3624 3982,3636 3989,3647 3996,3657 4003,3666 4010,3674 4017,3680 4024,3685 4032,3688 4040,3689 4046,3689 4053,3688 4060,3686 4067,3683 4073,3680 4080,3676 4087,3672 4094,3667 4101,3663 4108,3658 4115,3653 4122,3649 4129,3645 4136,3641 4142,3637 4149,3635 4156,3633 4162,3631 4168,3631 4174,3632 4183,3635 4192,3641 4200,3651 4207,3663 4214,3679 4221,3697 4227,3717 4234,3739 4240,3762 4245,3787 4251,3813 4257,3839 4263,3865 4269,3891 4275,3917 4281,3941 4288,3965 4294,3987 4301,4008 4309,4027 4315,4039 4320,4051 4326,4062 4333,4072 4339,4082 4345,4091 4352,4099 4359,4107 4365,4114 4372,4121 4379,4128 4386,4134 4393,4140 4400,4145 4407,4150 4415,4155 4422,4160 4429,4165 4436,4170 4443,4175 4450,4180 4457,4185 4464,4189 4470,4194 4477,4199 4484,4204 4491,4209 4497,4214 4504,4218 4511,4223 4517,4228 4524,4233 4531,4238 4538,4243 4544,4248 4551,4253 4558,4257 4564,4262 4571,4267 4578,4271 4585,4276 4591,4281 4598,4285 4605,4290 4611,4294 4618,4298 4625,4303 4632,4307 4638,4311 4645,4316 4652,4320 4659,4324 4665,4328 4672,4333 4679,4337 4686,4341 4692,4346 4699,4350 4706,4354 4713,4359 4719,4363 4726,4367 4733,4371 4739,4376 4746,4380 4753,4384 4759,4389 4766,4393 4773,4397 4779,4401 4786,4405 4793,4409 4800,4413 4806,4417 4813,4421 4820,4425 4827,4428 4833,4432 4840,4435 4847,4438 4854,4442 4860,4444 4867,4447 4874,4450 4880,4453 4887,4455 4894,4458 4901,4460 4907,4462 4914,4465 4921,4467 4928,4469 4934,4472 4941,4474 4948,4476 4955,4479 4961,4481 4968,4483 4975,4486 4982,4488 4988,4491 4995,4494 5002,4496 5009,4499 5015,4502 5022,4505 5029,4507 5035,4510 5042,4513 5049,4515 5056,4518 5062,4521 5069,4523 5076,4526 5082,4528 5089,4530 5096,4532 5103,4534 5109,4536 5116,4538 5123,4539 5130,4540 5136,4541 5143,4543 5150,4543 5156,4544 5163,4545 5170,4546 5177,4546 5183,4547 5190,4547 5197,4548 5204,4548 5210,4549 5217,4549 5224,4550 5231,4551 5237,4551 5244,4552 5251,4553 5257,4554 5264,4555 5271,4556 5278,4557 5284,4558 5291,4559 5298,4560 5305,4562 5311,4563 5318,4564 5325,4565 5331,4567 5338,4568 5345,4569 5352,4570 5358,4571 5365,4572 5372,4572 5379,4573 5385,4573 5392,4574 5399,4574 5405,4574 5412,4574 5419,4574 5426,4574 5432,4573 5439,4573 5446,4573 5452,4572 5459,4572 5466,4571 5473,4571 5479,4570 5486,4570 5493,4569 5500,4569 5506,4568 5513,4568 5520,4567 5527,4567 5533,4567 5540,4567 5547,4567 5554,4567 5560,4567 5567,4566 5574,4566 5580,4566 5587,4566 5594,4566 5601,4566 5607,4566 5614,4566 5621,4565 5628,4565 5634,4564 5641,4564 5648,4563 5654,4562 5661,4562 5668,4561 5675,4559 5681,4558 5688,4557 5695,4555 5702,4554 5708,4552 5715,4551 5722,4549 5729,4547 5735,4545 5742,4543 5749,4541 5755,4539 5762,4537 5769,4535 5776,4533 5782,4531 5789,4529 5796,4527 5802,4525 5809,4522 5816,4520 5823,4518 5829,4516 5836,4514 5843,4511 5850,4509 5856,4507 5863,4504 5870,4502 5877,4499 5883,4497 5890,4495 5897,4492 5903,4489 5910,4487 5917,4484 5923,4481 5930,4478 5937,4475 5944,4472 5950,4469 5957,4466 5964,4463 5971,4460 5977,4457 5984,4454 5991,4451 5997,4448 6004,4444 6011,4441 6018,4438 6024,4435 6031,4432 6038,4429 6045,4426 6051,4423 6058,4420 6065,4417 6071,4415 6078,4412 6085,4409 6092,4407 6098,4404 6105,4402 6112,4399 6119,4397 6125,4394 6132,4391 6139,4389 6146,4386 6152,4384 6159,4381 6166,4378 6172,4376 6179,4373 6185,4370 6192,4367 6198,4364 6205,4361 6212,4358 6219,4355 6225,4351 6232,4348 6239,4345 6246,4341 6252,4338 6259,4334 6266,4331 6272,4327 6279,4324 6286,4320 6293,4316 6299,4313 6306,4309 6313,4306 6319,4302 6326,4298 6333,4295 6340,4291 6346,4288 6353,4284 6360,4280 6367,4277 6373,4273 6380,4269 6387,4266 6394,4262 6400,4259 6407,4255 6414,4251 6420,4247 6427,4244 6434,4240 6441,4236 6447,4232 6454,4228 6461,4224 6467,4220 6474,4216 6481,4212 6488,4207 6494,4203 6501,4199 6508,4194 6515,4190 6521,4185 6528,4181 6535,4176 6542,4172 6548,4167 6555,4163 6562,4158 6568,4153 6575,4149 6582,4144 6589,4139 6595,4135 6602,4130 6609,4126 6615,4121 6622,4116 6628,4112 6635,4108 6642,4103 6648,4099 6655,4094 6662,4090 6669,4086 6675,4082 6682,4078 6689,4074 6696,4071 6702,4067 6709,4064 6716,4060 6723,4057 6730,4054 6737,4051 6744,4048 6751,4046 6758,4043 6765,4040 6772,4038 6779,4035 6786,4031 6793,4028 6800,4024 6807,4020 6813,4016 6820,4011 6827,4005 6833,3999 6840,3992 6846,3985 6852,3977 6858,3968 6864,3958 6872,3943 6880,3927 6887,3908 6894,3888 6901,3867 6908,3845 6914,3823 6921,3800 6927,3777 6933,3754 6939,3733 6946,3712 6952,3693 6958,3675 6965,3660 6971,3646 6978,3635 6985,3628 6992,3623 6999,3622 7005,3623 7011,3626 7017,3630 7023,3635 7029,3642 7036,3649 7042,3658 7049,3667 7056,3677 7062,3686 7069,3696 7076,3707 7083,3716 7090,3726 7097,3735 7104,3743 7112,3751 7119,3758 7126,3763 7133,3767 7140,3770 7147,3772 7153,3772 7160,3772 7167,3771 7174,3769 7180,3767 7187,3764 7194,3760 7201,3756 7207,3751 7214,3746 7221,3740 7228,3735 7234,3729 7241,3723 7248,3717 7255,3711 7261,3705 7268,3699 7275,3694 7281,3689 7288,3684 7295,3679 7302,3674 7308,3669 7315,3665 7322,3661 7328,3657 7335,3653 7342,3649 7349,3645 7355,3642 7362,3639 7369,3635 7375,3632 7382,3629 7389,3626 7396,3623 7403,3620 7409,3617 7416,3614 7422,3611 7429,3609 7436,3606 7443,3603 7449,3600 7456,3598 7463,3595 7469,3593 7476,3590 7483,3588 7490,3585 7496,3583 7503,3580 7510,3578 7517,3575 7524,3573 7530,3570 7537,3568 7544,3565 7551,3563 7557,3561 7564,3558 7571,3556 7577,3554 7584,3551 7591,3549 7598,3547 7604,3544 7611,3542 7618,3540 7624,3538 7631,3536 7638,3534 7645,3531 7651,3529 7658,3527 7665,3525 7672,3523 7678,3521 7685,3519 7692,3518 7698,3516 7705,3514 7712,3512 7719,3511 7725,3509 7732,3507 7739,3506 7745,3505 7752,3503 7759,3502 7766,3501 7772,3499 7779,3498 7786,3497 7793,3496 7799,3495 7806,3495 7813,3494 7820,3493 7826,3493 7833,3492 7840,3492 7847,3491 7853,3491 7860,3491 7867,3490 7873,3490 7880,3490 7887,3490 7894,3490 7900,3490 7907,3490 7914,3491 7921,3491 7927,3491 7934,3491 7941,3491 7947,3492 7954,3492 7961,3492 7968,3493 7974,3493 7981,3493 7988,3494 7995,3494 8001,3494 8008,3495 8015,3495 8021,3496 8028,3496 8035,3496 8042,3497 8048,3497 8055,3497 8062,3498 8069,3498 8075,3499 8082,3499 8089,3499 8096,3500 8102,3500 8109,3500 8116,3500 8123,3501 8129,3501 8136,3501 8143,3502 8150,3502 8156,3503 8163,3503 8170,3504 8176,3504 8183,3505 8190,3505 8197,3506 8203,3507 8210,3507 8217,3508 8223,3509 8230,3510 8237,3511 8243,3512 8250,3514 8257,3515 8264,3517 8270,3519 8277,3521 8284,3523 8290,3526 8297,3528 8304,3531 8310,3534 8317,3538 8324,3542 8331,3546 8338,3550 8344,3555 8351,3560 8358,3565 8365,3571 8372,3576 8379,3582 8386,3588 8393,3593 8400,3599 8407,3604 8413,3608 8420,3612 8427,3616 8434,3619 8440,3621 8447,3623 8454,3623 8460,3623 8466,3621 8473,3619 8479,3615 8487,3607 8495,3597 8503,3585 8511,3570 8519,3552 8526,3534 8533,3514 8541,3493 8547,3471 8554,3449 8561,3427 8567,3406 8573,3386 8579,3367 8585,3350 8591,3334 8597,3321 8603,3311 8608,3304 8613,3300 8620,3301 8625,3307 8631,3317 8637,3332 8643,3350 8649,3372 8654,3397 8660,3423 8666,3452 8672,3481 8679,3512 8685,3542 8692,3573 8699,3602 8706,3630 8714,3657 8722,3680 8730,3702 8739,3720 8748,3735 8754,3743 8760,3751 8767,3757 8773,3763 8779,3768 8786,3772 8793,3776 8799,3779 8806,3782 8813,3784 8820,3786 8827,3788 8834,3790 8841,3791 8848,3793 8855,3795 8862,3797 8869,3799 8876,3801 8883,3804 8889,3807 8896,3810 8903,3814 8910,3819 8916,3823 8923,3827 8930,3832 8937,3836 8943,3841 8950,3845 8956,3850 8963,3854 8970,3857 8977,3861 8983,3864 8990,3866 8997,3868 9003,3869 9010,3870 9017,3870 9024,3869 9031,3868 9038,3865 9044,3863 9051,3860 9058,3857 9065,3853 9072,3849 9079,3846 9086,3842 9093,3838 9099,3835 9106,3832 9113,3829 9119,3827 9126,3825 9133,3824 9139,3823 9145,3824 9152,3825 9159,3828 9166,3832 9173,3837 9180,3844 9186,3851 9193,3860 9200,3869 9206,3879 9213,3889 9219,3900 9226,3911 9232,3922 9239,3933 9245,3944 9252,3955 9258,3966 9265,3975 9272,3985 9279,3993 9286,4000 9292,4006 9299,4011 9305,4016 9312,4020 9318,4023 9325,4027 9332,4029 9338,4032 9345,4034 9352,4036 9359,4037 9366,4039 9373,4040 9379,4041 9386,4042 9393,4044 9400,4045 9407,4046 9414,4047 9421,4049 9428,4051 9434,4053 9441,4055 9448,4057 9455,4060 9462,4062 9468,4065 9475,4068 9482,4071 9488,4074 9495,4077 9502,4080 9508,4083 9515,4086 9522,4089 9529,4092 9535,4095 9542,4097 9549,4100 9555,4103 9562,4105 9569,4108 9575,4110 9582,4112 9589,4114 9595,4116 9602,4118 9609,4120 9616,4122 9622,4123 9629,4125 9636,4127 9643,4128 9649,4130 9656,4132 9663,4133 9670,4135 9676,4136 9683,4138 9690,4140 9697,4141 9703,4143 9710,4145 9717,4146 9724,4148 9730,4150 9737,4152 9744,4153 9750,4155 9757,4157 9764,4158 9771,4160 9777,4161 9784,4163 9791,4164 9797,4166 9804,4167 9811,4168 9818,4169 9824,4170 9831,4171 9838,4172 9845,4173 9851,4173 9858,4174 9865,4174 9871,4175 9878,4175 9885,4176 9892,4176 9898,4176 9905,4176 9912,4176 9919,4176 9925,4176 9932,4176 9939,4177 9946,4177 9952,4177 9959,4177 9966,4177 9972,4177 9979,4177 9986,4177 9993,4177 9999,4177 10006,4177 10013,4177 10020,4178 10026,4178 10033,4178 10040,4178 10046,4179 10053,4179 10060,4179 10067,4180 10073,4180 10080,4180 10087,4181 10094,4181 10100,4182 10107,4183 10114,4183 10120,4184 10127,4184 10134,4185 10141,4186 10147,4186 10154,4187 10161,4187 10168,4188 10174,4188 10181,4188 10188,4189 10194,4189 10201,4189 10208,4189 10215,4189 10221,4189 10228,4188 10235,4188 10242,4188 10248,4187 10255,4186 10262,4185 10268,4184 10275,4183 10282,4182 10289,4181 10295,4180 10302,4179 10309,4178 10316,4177 10322,4176 10329,4175 10336,4173 10342,4172 10349,4171 10356,4170 10363,4169 10369,4168 10376,4168 10383,4167 10390,4166 10396,4165 10403,4165 10410,4164 10416,4164 10423,4163 10430,4163 10437,4162 10443,4161 10450,4161 10457,4160 10464,4160 10470,4159 10477,4158 10484,4158 10490,4157 10497,4156 10504,4155 10511,4154 10517,4153 10524,4152 10531,4151 10538,4150 10544,4149 10551,4148 10558,4146 10565,4145 10571,4144 10578,4142 10585,4141 10591,4139 10598,4138 10605,4136 10612,4135 10618,4133 10625,4132 10632,4130 10638,4129 10645,4127 10652,4126 10659,4124 10665,4123 10672,4121 10679,4120 10685,4118 10692,4117 10699,4116 10706,4115 10712,4114 10719,4113 10726,4112 10732,4111 10739,4110 10746,4109 10753,4109 10759,4109 10766,4108 10773,4108 10780,4108 10787,4109 10793,4109 10800,4109 10807,4109 10814,4110 10821,4110 10827,4110 10834,4110 10841,4110 10848,4109 10854,4109 10861,4108 10868,4107 10874,4105 10881,4103 10888,4101 10894,4099 10901,4096 10908,4092 10914,4088 10921,4084 10928,4079 10935,4074 10941,4069 10948,4063 10955,4058 10962,4052 10968,4046 10975,4041 10982,4036 10988,4031 10995,4026 11002,4022 11008,4018 11015,4015 11022,4012 11029,4010 11035,4008 11042,4007 11049,4007 11055,4007 11062,4008 11068,4010 11075,4011 11082,4013 11089,4016 11095,4018 11102,4021 11109,4024 11116,4026 11122,4029 11129,4032 11136,4035 11143,4037 11150,4039 11156,4041 11163,4043 11170,4044 11177,4045 11183,4045 11190,4045 11197,4045 11204,4044 11210,4043 11217,4041 11224,4040 11231,4038 11237,4036 11244,4034 11251,4031 11257,4029 11264,4026 11271,4023 11278,4021 11284,4018 11291,4015 11298,4013 11304,4010 11311,4008 11318,4006 11325,4003 11331,4001 11338,3999 11345,3998 11351,3996 11358,3994 11365,3992 11372,3991 11378,3989 11385,3988 11392,3987 11399,3985 11405,3984 11412,3983 11419,3982 11426,3981 11432,3980 11439,3979 11446,3978 11452,3977 11459,3977 11466,3976 11473,3975 11479,3974 11486,3973 11493,3973 11500,3972 11506,3971 11513,3970 11520,3970 11527,3969 11533,3968 11540,3967 11547,3966 11553,3964 11560,3963 11567,3962 11574,3961 11580,3959 11587,3957 11594,3956 11601,3954 11607,3952 11614,3950 11621,3948 11627,3946 11634,3944 11641,3942 11648,3940 11654,3938 11661,3936 11668,3934 11674,3932 11681,3930 11688,3928 11695,3926 11701,3925 11708,3923 11715,3921 11722,3920 11728,3918 11735,3917 11742,3916 11748,3914 11755,3913 11762,3912 11769,3911 11775,3909 11782,3908 11789,3907 11796,3906 11802,3905 11809,3903 11816,3902 11822,3901 11829,3900 11836,3898 11843,3897 11849,3896 11856,3894 11863,3893 11870,3891 11876,3890 11883,3888 11890,3886 11897,3885 11903,3883 11910,3882 11917,3880 11923,3878 11930,3877 11937,3875 11944,3873 11950,3872 11957,3870 11964,3868 11970,3867 11977,3865 11984,3864 11991,3862 11997,3861 12004,3860 12011,3858 12017,3857 12024,3856 12031,3855 12038,3854 12044,3853 12045,3853"/>
 <path fill="none" stroke="rgb(0,69,134)" stroke-width="80" stroke-linejoin="round" d="M 1282,5748 L 1288,5748 1295,5748 1301,5748 1308,5748 1315,5748 1322,5749 1328,5749 1335,5749 1342,5750 1349,5751"/>
 <path fill="none" stroke="rgb(0,69,134)" stroke-width="80" stroke-linejoin="round" d="M 1483,5751 L 1490,5748 1497,5744 1504,5740 1511,5736 1518,5731 1525,5726 1531,5720 1538,5715 1545,5709 1551,5703 1558,5696 1565,5690 1571,5683 1578,5676 1585,5670 1591,5663 1598,5656 1605,5650 1611,5643 1618,5637 1624,5631 1631,5625 1638,5619 1644,5614 1651,5609 1657,5604 1664,5599 1671,5594 1677,5589 1684,5584 1691,5580 1698,5576 1705,5572 1711,5568 1718,5564 1725,5560 1732,5556 1739,5553 1746,5550 1752,5546 1759,5543 1766,5540 1772,5537 1779,5535 1786,5532 1793,5529 1799,5527 1806,5524 1813,5522 1819,5519 1826,5517 1833,5515 1840,5513 1846,5510 1853,5508 1860,5506 1867,5504 1873,5501 1880,5499 1887,5497 1894,5495 1901,5492 1907,5490 1914,5488 1921,5485 1928,5483 1934,5480 1941,5478 1948,5475 1955,5472 1961,5470 1968,5467 1975,5464 1981,5461 1988,5458 1995,5455 2002,5452 2008,5449 2015,5445 2022,5442 2029,5438 2036,5434 2043,5429 2050,5425 2057,5420 2064,5415 2071,5410 2078,5405 2085,5399 2092,5393 2099,5387 2106,5380 2112,5372 2119,5365 2125,5357 2132,5348 2138,5339 2144,5329 2150,5319 2156,5308 2169,5282 2181,5253 2192,5221 2202,5184 2212,5144 2220,5100 2228,5052 2236,5002 2243,4948 2249,4891 2254,4832 2260,4770 2264,4706 2269,4641 2273,4573 2277,4504 2280,4433 2284,4361 2287,4289 2291,4215 2294,4132 2298,4049 2302,3966 2306,3883 2310,3800 2315,3719 2320,3638 2325,3559 2330,3482 2336,3407 2342,3335 2349,3265 2357,3199 2364,3135 2373,3076 2382,3020 2392,2969 2402,2923 2413,2880 2425,2841 2432,2821 2438,2802 2445,2784 2452,2766 2458,2749 2465,2732 2472,2715 2479,2698 2486,2682 2493,2666 2500,2649 2507,2633 2514,2616 2521,2599 2528,2582 2534,2564 2541,2545 2547,2526 2554,2506 2560,2485 2570,2449 2579,2409 2588,2366 2596,2319 2604,2269 2611,2217 2618,2162 2624,2105 2630,2046 2636,1986 2642,1925 2648,1863 2653,1802 2659,1740 2664,1680 2670,1620 2676,1562 2682,1505 2688,1450 2694,1397 2699,1361 2704,1326 2709,1293 2714,1260 2720,1228 2725,1198 2731,1168 2737,1140 2744,1112 2750,1086 2757,1061 2764,1037 2771,1014 2778,992 2786,971 2794,952 2802,933 2811,916 2820,899 2829,884 2835,875 2841,866 2847,858 2853,850 2859,843 2866,835 2872,829 2879,822 2885,816 2892,810 2899,805 2906,800 2913,795 2920,790 2927,786 2934,782 2941,778 2949,774 2956,771 2963,768 2970,766 2977,763 2984,761 2991,759 2998,758 3005,757 3012,756 3019,756 3026,756 3033,757 3040,758 3047,759 3054,762 3060,764 3067,768 3073,772 3080,776 3086,782 3092,788 3098,795 3110,812 3122,834 3132,859 3142,890 3151,924 3158,963 3165,1005 3172,1050 3177,1097 3183,1146 3187,1197 3192,1249 3196,1301 3201,1354 3205,1406 3210,1456 3215,1506 3220,1553 3226,1598 3232,1640 3238,1671 3244,1702 3250,1731 3256,1758 3263,1784 3269,1810 3276,1836 3283,1860 3290,1884 3297,1908 3304,1932 3312,1955 3319,1979 3326,2003 3333,2027 3340,2052 3347,2077 3354,2103 3361,2130 3367,2158 3374,2191 3381,2226 3387,2262 3393,2299 3399,2337 3405,2375 3411,2414 3417,2453 3423,2491 3429,2529 3435,2567 3441,2604 3447,2639 3454,2673 3461,2705 3468,2735 3476,2763 3484,2789 3493,2812 3502,2833 3508,2846 3514,2858 3521,2870 3528,2881 3535,2892 3541,2903 3548,2913 3555,2924 3562,2935 3569,2946 3576,2957 3583,2969 3590,2982 3597,2995 3604,3010 3611,3025 3617,3042 3624,3059 3630,3079 3636,3099 3647,3141 3656,3189 3665,3244 3674,3305 3681,3373 3687,3446 3693,3522 3699,3599 3704,3677 3709,3753 3714,3827 3719,3896 3724,3960 3729,4017 3734,4065 3740,4103 3747,4130 3754,4144 3762,4146 3771,4137 3776,4128 3782,4116 3787,4101 3793,4085 3799,4067 3806,4047 3812,4027 3818,4005 3825,3984 3832,3962 3839,3941 3846,3920 3853,3901 3860,3882 3868,3866 3875,3851 3883,3839 3890,3830 3898,3823 3905,3820 3911,3820 3918,3821 3924,3824 3930,3828 3937,3834 3943,3841 3949,3848 3956,3857 3962,3866 3969,3876 3976,3887 3983,3897 3989,3908 3996,3918 4003,3929 4010,3939 4018,3949 4025,3957 4032,3966 4040,3973 4047,3979 4053,3984 4060,3988 4067,3992 4074,3995 4081,3998 4088,4001 4095,4003 4102,4005 4109,4007 4116,4009 4123,4011 4130,4013 4137,4015 4143,4018 4150,4021 4156,4024 4162,4027 4168,4031 4174,4036 4183,4044 4191,4054 4199,4066 4206,4080 4213,4095 4220,4112 4226,4131 4233,4151 4239,4172 4244,4195 4250,4218 4256,4242 4262,4267 4268,4292 4274,4317 4280,4343 4287,4368 4294,4394 4301,4419 4309,4444 4315,4462 4321,4480 4328,4498 4335,4515 4341,4531 4348,4547 4355,4562 4362,4575 4369,4588 4376,4600 4383,4610 4390,4619 4397,4627 4404,4633 4411,4637 4418,4640 4425,4642 4431,4641 4437,4639 4443,4634 4452,4624 4460,4610 4467,4590 4474,4567 4481,4539 4487,4509 4493,4476 4498,4442 4504,4406 4509,4370 4515,4334 4521,4298 4526,4264 4532,4232 4539,4202 4546,4175 4553,4152 4561,4134 4569,4120 4578,4110 4584,4106 4590,4104 4596,4103 4603,4104 4609,4106 4616,4109 4623,4114 4630,4119 4637,4126 4644,4134 4651,4143 4658,4152 4665,4162 4672,4173 4679,4185 4686,4197 4692,4209 4699,4222 4706,4235 4713,4248 4720,4263 4727,4278 4734,4293 4740,4308 4747,4322 4754,4337 4760,4351 4767,4364 4773,4377 4779,4390 4786,4401 4792,4412 4799,4422 4805,4432 4812,4440 4819,4447 4826,4452 4833,4457 4840,4460 4847,4462 4853,4462 4859,4462 4866,4460 4872,4459 4879,4456 4885,4453 4892,4450 4899,4447 4905,4443 4912,4439 4919,4435 4926,4430 4933,4426 4940,4422 4947,4418 4954,4415 4961,4412 4968,4409 4975,4406 4982,4405 4988,4404 4995,4403 5002,4403 5009,4404 5016,4405 5022,4406 5029,4407 5036,4409 5042,4411 5049,4413 5056,4415 5063,4417 5069,4419 5076,4420 5083,4422 5089,4423 5096,4424 5103,4425 5109,4425 5116,4425 5123,4424 5130,4423 5136,4421 5143,4419 5150,4417 5157,4414 5164,4412 5170,4409 5177,4406 5184,4403 5191,4400 5197,4398 5204,4395 5211,4393 5217,4391 5224,4389 5231,4388 5237,4388 5244,4387 5251,4388 5258,4389 5264,4391 5271,4394 5278,4397 5285,4400 5291,4404 5298,4409 5305,4413 5311,4418 5318,4423 5325,4428 5332,4433 5338,4437 5345,4442 5352,4447 5358,4451 5365,4455 5372,4458 5379,4461 5385,4464 5392,4465 5399,4466 5406,4467 5413,4467 5420,4466 5427,4464 5434,4462 5441,4459 5447,4456 5454,4451 5461,4447 5468,4441 5474,4435 5481,4428 5488,4420 5494,4411 5501,4402 5507,4392 5514,4382 5520,4370 5528,4355 5536,4338 5543,4320 5551,4302 5558,4282 5565,4263 5572,4243 5579,4224 5586,4204 5593,4186 5599,4168 5606,4152 5612,4136 5618,4123 5625,4111 5631,4101 5637,4094 5643,4089 5649,4087 5654,4087 5661,4093 5668,4104 5675,4120 5682,4140 5689,4164 5695,4191 5702,4220 5709,4252 5715,4285 5722,4318 5728,4352 5735,4385 5742,4418 5748,4448 5755,4476 5761,4501 5768,4523 5775,4540 5782,4552 5789,4560 5795,4562 5801,4560 5808,4555 5814,4547 5821,4536 5827,4522 5834,4506 5840,4488 5847,4468 5854,4446 5861,4424 5867,4400 5874,4376 5881,4351 5888,4326 5895,4302 5902,4278 5909,4255 5916,4233 5923,4212 5930,4195 5936,4178 5942,4163 5949,4149 5955,4135 5961,4122 5968,4109 5974,4097 5981,4086 5988,4075 5994,4064 6001,4054 6008,4044 6015,4034 6022,4025 6029,4015 6036,4006 6043,3997 6051,3987 6058,3978 6064,3970 6071,3961 6077,3953 6084,3945 6090,3937 6097,3930 6104,3922 6110,3915 6117,3908 6124,3902 6131,3896 6137,3890 6144,3885 6151,3881 6158,3877 6165,3873 6172,3871 6179,3869 6185,3867 6192,3867 6198,3867 6205,3869 6212,3871 6219,3873 6226,3876 6233,3880 6240,3885 6246,3890 6253,3895 6260,3901 6267,3907 6273,3913 6280,3920 6287,3926 6293,3933 6300,3940 6307,3947 6313,3955 6320,3962 6326,3969 6333,3976 6340,3983 6346,3990 6353,3997 6360,4004 6366,4010 6373,4017 6379,4024 6386,4030 6392,4037 6399,4044 6406,4051 6412,4058 6419,4065 6426,4072 6433,4080 6440,4088 6447,4096 6454,4104 6461,4113 6467,4121 6474,4129 6481,4138 6488,4147 6495,4155 6502,4163 6509,4171 6516,4179 6523,4186 6530,4193 6537,4199 6544,4204 6551,4208 6557,4212 6564,4215 6570,4216 6577,4217 6583,4216 6589,4214 6595,4211 6604,4202 6613,4190 6621,4173 6629,4153 6636,4128 6643,4101 6649,4072 6656,4041 6662,4008 6668,3975 6674,3942 6679,3910 6685,3878 6691,3848 6697,3821 6703,3796 6709,3775 6716,3758 6723,3745 6730,3737 6735,3733 6741,3732 6747,3733 6753,3737 6759,3742 6766,3749 6772,3757 6779,3767 6786,3779 6792,3791 6799,3805 6806,3820 6813,3836 6820,3853 6828,3870 6835,3888 6842,3906 6850,3924 6857,3943 6864,3961 6871,3979 6879,3996 6886,4013 6893,4029 6900,4045 6907,4061 6914,4075 6921,4089 6928,4102 6935,4113 6941,4124 6948,4133 6955,4141 6962,4148 6968,4153 6974,4156 6981,4158 6987,4157 6993,4155 6999,4151 7006,4142 7013,4131 7019,4116 7026,4098 7032,4078 7039,4056 7045,4033 7051,4009 7057,3984 7063,3959 7069,3934 7076,3910 7082,3888 7089,3866 7095,3847 7102,3831 7110,3817 7117,3807 7125,3801 7133,3798 7140,3798 7146,3800 7153,3803 7159,3807 7166,3812 7173,3819 7179,3826 7186,3834 7193,3842 7200,3850 7207,3859 7214,3867 7221,3875 7228,3883 7235,3890 7242,3897 7248,3903 7255,3907 7262,3911 7268,3913 7276,3914 7284,3911 7291,3906 7298,3899 7305,3889 7312,3877 7319,3863 7326,3848 7332,3831 7339,3813 7345,3794 7351,3775 7358,3755 7364,3734 7370,3714 7376,3694 7383,3674 7389,3655 7396,3637 7403,3620 7409,3606 7415,3592 7421,3580 7427,3568 7434,3556 7440,3545 7447,3535 7454,3525 7460,3515 7467,3506 7474,3497 7481,3488 7488,3479 7495,3469 7502,3460 7509,3451 7516,3441 7523,3431 7530,3421 7537,3410 7544,3400 7550,3389 7557,3378 7563,3367 7570,3356 7576,3346 7583,3335 7590,3325 7596,3315 7603,3306 7610,3297 7616,3289 7623,3282 7630,3275 7637,3270 7644,3266 7651,3263 7658,3261 7665,3261 7672,3262 7678,3264 7685,3268 7692,3272 7699,3278 7706,3284 7713,3291 7719,3299 7726,3307 7733,3314 7740,3322 7747,3330 7754,3338 7760,3345 7767,3351 7774,3357 7780,3362 7787,3365 7793,3368 7800,3369 7806,3369 7813,3367 7820,3362 7827,3356 7834,3347 7841,3337 7848,3325 7854,3313 7861,3299 7867,3285 7874,3270 7880,3255 7887,3241 7893,3226 7900,3212 7906,3199 7913,3187 7920,3176 7927,3166 7934,3159 7941,3153 7947,3150 7954,3148 7961,3147 7967,3149 7974,3151 7981,3155 7988,3160 7995,3166 8002,3173 8009,3182 8016,3191 8023,3201 8029,3212 8036,3223 8043,3236 8050,3248 8056,3261 8063,3275 8069,3289 8075,3303 8083,3321 8091,3339 8098,3358 8105,3376 8112,3394 8119,3413 8125,3431 8132,3449 8138,3466 8145,3484 8151,3501 8157,3518 8164,3535 8170,3552 8176,3568 8183,3584 8189,3599 8196,3614 8203,3629 8210,3643 8216,3654 8222,3665 8228,3676 8234,3687 8241,3697 8247,3708 8254,3718 8261,3728 8267,3738 8274,3748 8281,3757 8288,3767 8295,3777 8302,3786 8309,3796 8316,3806 8323,3816 8330,3826 8337,3836 8344,3847 8351,3857 8357,3866 8364,3876 8371,3886 8377,3895 8384,3904 8390,3914 8397,3922 8404,3931 8410,3939 8417,3946 8424,3953 8431,3960 8437,3966 8444,3971 8451,3975 8458,3978 8465,3981 8472,3982 8479,3983 8485,3983 8492,3981 8499,3980 8505,3977 8512,3974 8519,3970 8525,3966 8532,3962 8539,3957 8545,3953 8552,3948 8559,3943 8566,3938 8573,3933 8579,3928 8586,3924 8593,3920 8600,3916 8607,3913 8613,3911 8620,3909 8627,3907 8633,3906 8640,3906 8647,3906 8653,3906 8660,3906 8666,3907 8673,3908 8680,3909 8687,3910 8693,3911 8700,3912 8707,3913 8714,3914 8720,3915 8727,3915 8734,3916 8741,3916 8748,3916 8755,3915 8762,3914 8769,3913 8776,3912 8783,3910 8790,3909 8797,3908 8804,3906 8811,3905 8818,3905 8825,3904 8832,3904 8838,3905 8845,3906 8852,3908 8858,3911 8864,3915 8871,3919 8877,3925 8883,3931 8892,3945 8901,3962 8910,3983 8918,4008 8926,4036 8933,4067 8940,4100 8947,4134 8953,4170 8959,4205 8965,4240 8971,4273 8976,4304 8982,4333 8987,4359 8993,4381 8999,4399 9005,4411 9011,4418 9017,4418 9023,4412 9029,4403 9035,4389 9042,4372 9048,4352 9055,4329 9061,4305 9068,4279 9075,4252 9082,4225 9089,4198 9096,4171 9103,4146 9110,4122 9117,4100 9124,4081 9131,4065 9138,4053 9145,4045 9152,4041 9158,4042 9164,4047 9170,4055 9176,4066 9182,4079 9188,4095 9195,4113 9201,4132 9207,4153 9213,4174 9220,4196 9226,4218 9233,4240 9240,4261 9247,4281 9255,4299 9262,4316 9270,4331 9278,4344 9286,4354 9292,4360 9298,4365 9305,4369 9311,4372 9317,4375 9324,4376 9331,4377 9337,4377 9344,4377 9351,4376 9358,4375 9364,4373 9371,4371 9378,4369 9385,4366 9392,4364 9400,4361 9407,4358 9414,4356 9421,4353 9428,4351 9435,4348 9443,4346 9450,4344 9457,4342 9464,4340 9471,4338 9478,4336 9485,4334 9492,4331 9499,4328 9506,4325 9512,4322 9519,4319 9525,4315 9532,4310 9538,4305 9544,4300 9550,4294 9555,4287 9563,4276 9571,4264 9579,4250 9586,4234 9592,4217 9599,4198 9605,4179 9611,4158 9617,4137 9623,4115 9628,4093 9634,4071 9640,4048 9646,4025 9653,4003 9660,3981 9667,3959 9674,3938 9682,3918 9690,3899 9696,3886 9702,3873 9709,3861 9715,3850 9722,3839 9729,3829 9735,3820 9742,3812 9749,3804 9756,3797 9763,3791 9770,3785 9777,3781 9784,3777 9791,3775 9798,3773 9805,3773 9811,3773 9818,3775 9824,3778 9832,3782 9839,3788 9845,3795 9852,3804 9859,3814 9865,3824 9872,3836 9878,3848 9884,3861 9890,3874 9897,3888 9903,3901 9910,3915 9916,3929 9923,3942 9930,3955 9937,3967 9944,3979 9951,3990 9959,4000 9965,4007 9972,4014 9978,4020 9985,4026 9991,4031 9998,4035 10005,4038 10012,4041 10019,4043 10026,4045 10033,4045 10040,4045 10047,4044 10053,4042 10060,4039 10067,4036 10074,4031 10081,4026 10087,4020 10094,4013 10102,4002 10111,3988 10119,3973 10127,3957 10135,3939 10142,3921 10149,3901 10156,3881 10163,3861 10169,3842 10176,3822 10182,3804 10188,3786 10194,3770 10200,3755 10206,3742 10212,3731 10217,3722 10223,3717 10228,3714 10234,3714 10240,3719 10246,3727 10252,3739 10258,3754 10264,3771 10270,3790 10276,3812 10282,3835 10289,3859 10295,3885 10302,3910 10309,3937 10316,3962 10323,3988 10330,4013 10338,4036 10346,4058 10354,4079 10363,4097 10369,4109 10375,4120 10381,4130 10388,4139 10394,4148 10401,4156 10407,4163 10414,4169 10421,4175 10428,4180 10434,4184 10441,4187 10448,4190 10455,4192 10462,4194 10469,4194 10476,4195 10483,4194 10490,4193 10497,4192 10504,4190 10511,4187 10517,4184 10524,4181 10531,4178 10537,4174 10544,4170 10551,4167 10557,4163 10564,4159 10571,4155 10577,4152 10584,4149 10591,4146 10597,4143 10604,4141 10611,4139 10618,4138 10625,4137 10632,4138 10639,4138 10646,4140 10653,4142 10660,4144 10667,4147 10674,4151 10681,4154 10687,4158 10694,4161 10701,4165 10708,4168 10715,4172 10722,4175 10728,4177 10735,4179 10741,4181 10748,4182 10754,4183 10760,4182 10766,4181 10776,4177 10785,4170 10793,4161 10802,4148 10809,4132 10817,4114 10824,4093 10831,4070 10837,4046 10844,4019 10850,3992 10856,3963 10861,3934 10867,3905 10873,3875 10878,3845 10884,3815 10889,3786 10895,3758 10901,3731 10906,3708 10911,3685 10917,3664 10922,3643 10928,3623 10934,3604 10940,3585 10946,3567 10952,3549 10959,3532 10965,3516 10972,3499 10979,3484 10987,3468 10994,3453 11002,3438 11010,3423 11018,3408 11027,3394 11035,3379 11042,3368 11049,3358 11056,3348 11062,3338 11069,3328 11076,3319 11083,3311 11090,3303 11097,3295 11104,3288 11111,3282 11118,3276 11125,3271 11132,3267 11139,3264 11145,3262 11152,3261 11158,3260 11164,3261 11170,3263 11180,3270 11190,3280 11199,3296 11207,3315 11214,3339 11220,3367 11226,3399 11232,3434 11237,3471 11242,3511 11247,3552 11252,3596 11257,3640 11262,3685 11268,3730 11274,3776 11281,3820 11288,3864 11296,3907 11304,3948 11310,3974 11317,3999 11323,4023 11330,4047 11336,4069 11343,4089 11350,4109 11357,4127 11364,4143 11372,4158 11379,4171 11386,4182 11393,4192 11400,4200 11407,4205 11414,4208 11420,4210 11427,4209 11433,4205 11439,4199 11447,4187 11454,4171 11460,4151 11467,4127 11473,4100 11478,4070 11484,4038 11489,4005 11495,3971 11500,3937 11506,3903 11512,3870 11518,3839 11524,3810 11531,3784 11539,3761 11546,3741 11555,3727 11564,3716 11574,3710 11580,3707 11586,3706 11592,3706 11598,3707 11605,3708 11612,3710 11618,3713 11625,3716 11632,3719 11639,3723 11646,3726 11653,3730 11660,3734 11667,3737 11674,3740 11681,3743 11688,3745 11695,3747 11701,3747 11708,3747 11715,3746 11722,3744 11729,3740 11736,3736 11743,3731 11750,3725 11757,3719 11763,3712 11770,3705 11776,3697 11783,3690 11790,3682 11796,3674 11803,3666 11809,3659 11816,3652 11822,3645 11829,3639 11836,3633 11843,3628 11849,3625 11856,3622 11862,3619 11869,3618 11876,3617 11882,3617 11889,3617 11896,3619 11902,3621 11909,3623 11916,3627 11923,3631 11930,3636 11937,3641 11943,3647 11950,3654 11957,3662 11964,3670 11971,3679 11977,3689 11999,3725 12020,3769 12041,3820 12045,3832"/>
 <text class="SVGTextShape"><tspan class="TextParagraph" font-family="Liberation Sans, sans-serif" font-size="353px" font-weight="400"><tspan class="TextPosition" x="1189" y="6319"><tspan fill="rgb(0,0,0)" stroke="none" style="white-space: pre">3</tspan></tspan></tspan></text>
 <text class="SVGTextShape"><tspan class="TextParagraph" font-family="Liberation Sans, sans-serif" font-size="353px" font-weight="400"><tspan class="TextPosition" x="2534" y="6319"><tspan fill="rgb(0,0,0)" stroke="none" style="white-space: pre">4</tspan></tspan></tspan></text>
 <text class="SVGTextShape"><tspan class="TextParagraph" font-family="Liberation Sans, sans-serif" font-size="353px" font-weight="400"><tspan class="TextPosition" x="3880" y="6319"><tspan fill="rgb(0,0,0)" stroke="none" style="white-space: pre">5</tspan></tspan></tspan></text>
 <text class="SVGTextShape"><tspan class="TextParagraph" font-family="Liberation Sans, sans-serif" font-size="353px" font-weight="400"><tspan class="TextPosition" x="5225" y="6319"><tspan fill="rgb(0,0,0)" stroke="none" style="white-space: pre">6</tspan></tspan></tspan></text>
 <text class="SVGTextShape"><tspan class="TextParagraph" font-family="Liberation Sans, sans-serif" font-size="353px" font-weight="400"><tspan class="TextPosition" x="6571" y="6319"><tspan fill="rgb(0,0,0)" stroke="none" style="white-space: pre">7</tspan></tspan></tspan></text>
 <text class="SVGTextShape"><tspan class="TextParagraph" font-family="Liberation Sans, sans-serif" font-size="353px" font-weight="400"><tspan class="TextPosition" x="7916" y="6319"><tspan fill="rgb(0,0,0)" stroke="none" style="white-space: pre">8</tspan></tspan></tspan></text>
 <text class="SVGTextShape"><tspan class="TextParagraph" font-family="Liberation Sans, sans-serif" font-size="353px" font-weight="400"><tspan class="TextPosition" x="9262" y="6319"><tspan fill="rgb(0,0,0)" stroke="none" style="white-space: pre">9</tspan></tspan></tspan></text>
 <text class="SVGTextShape"><tspan class="TextParagraph" font-family="Liberation Sans, sans-serif" font-size="353px" font-weight="400"><tspan class="TextPosition" x="10515" y="6319"><tspan fill="rgb(0,0,0)" stroke="none" style="white-space: pre">10</tspan></tspan></tspan></text>
 <text class="SVGTextShape"><tspan class="TextParagraph" font-family="Liberation Sans, sans-serif" font-size="353px" font-weight="400"><tspan class="TextPosition" x="11861" y="6319"><tspan fill="rgb(0,0,0)" stroke="none" style="white-space: pre">11</tspan></tspan></tspan></text>
 <text class="SVGTextShape"><tspan class="TextParagraph" font-family="Liberation Sans, sans-serif" font-size="353px" font-weight="400"><tspan class="TextPosition" x="847" y="5872"><tspan fill="rgb(0,0,0)" stroke="none" style="white-space: pre">0</tspan></tspan></tspan></text>
 <text class="SVGTextShape"><tspan class="TextParagraph" font-family="Liberation Sans, sans-serif" font-size="353px" font-weight="400"><tspan class="TextPosition" x="556" y="4955"><tspan fill="rgb(0,0,0)" stroke="none" style="white-space: pre">0.5</tspan></tspan></tspan></text>
 <text class="SVGTextShape"><tspan class="TextParagraph" font-family="Liberation Sans, sans-serif" font-size="353px" font-weight="400"><tspan class="TextPosition" x="847" y="4039"><tspan fill="rgb(0,0,0)" stroke="none" style="white-space: pre">1</tspan></tspan></tspan></text>
 <text class="SVGTextShape"><tspan class="TextParagraph" font-family="Liberation Sans, sans-serif" font-size="353px" font-weight="400"><tspan class="TextPosition" x="556" y="3124"><tspan fill="rgb(0,0,0)" stroke="none" style="white-space: pre">1.5</tspan></tspan></tspan></text>
 <text class="SVGTextShape"><tspan class="TextParagraph" font-family="Liberation Sans, sans-serif" font-size="353px" font-weight="400"><tspan class="TextPosition" x="847" y="2207"><tspan fill="rgb(0,0,0)" stroke="none" style="white-space: pre">2</tspan></tspan></tspan></text>
 <text class="SVGTextShape"><tspan class="TextParagraph" font-family="Liberation Sans, sans-serif" font-size="353px" font-weight="400"><tspan class="TextPosition" x="556" y="1291"><tspan fill="rgb(0,0,0)" stroke="none" style="white-space: pre">2.5</tspan></tspan></tspan></text>
 <text class="SVGTextShape"><tspan class="TextParagraph" font-family="Liberation Sans, sans-serif" font-size="353px" font-weight="400"><tspan class="TextPosition" x="847" y="375"><tspan fill="rgb(0,0,0)" stroke="none" style="white-space: pre">3</tspan></tspan></tspan></text>
 <path fill="none" stroke="rgb(0,69,134)" stroke-width="80" stroke-linejoin="round" d="M 9377,820 L 10177,820"/>
 <path fill="none" stroke="rgb(255,66,14)" stroke-width="80" stroke-linejoin="round" d="M 9377,1222 L 10177,1222"/>
 <path fill="none" stroke="rgb(255,211,32)" stroke-width="80" stroke-linejoin="round" d="M 9377,1624 L 10177,1624"/>
 <path fill="none" stroke="rgb(87,157,28)" stroke-width="80" stroke-linejoin="round" d="M 9377,2025 L 10177,2025"/>
 <path fill="none" stroke="rgb(126,0,33)" stroke-width="80" stroke-linejoin="round" d="M 9377,2427 L 10177,2427"/>
 <text class="SVGTextShape"><tspan class="TextParagraph" font-family="Liberation Sans, sans-serif" font-size="353px" font-weight="400"><tspan class="TextPosition" x="10277" y="940"><tspan fill="rgb(0,0,0)" stroke="none" style="white-space: pre">dft</tspan></tspan></tspan></text>
 <text class="SVGTextShape"><tspan class="TextParagraph" font-family="Liberation Sans, sans-serif" font-size="353px" font-weight="400"><tspan class="TextPosition" x="10277" y="1342"><tspan fill="rgb(0,0,0)" stroke="none" style="white-space: pre">mtp08</tspan></tspan></tspan></text>
 <text class="SVGTextShape"><tspan class="TextParagraph" font-family="Liberation Sans, sans-serif" font-size="353px" font-weight="400"><tspan class="TextPosition" x="10277" y="1743"><tspan fill="rgb(0,0,0)" stroke="none" style="white-space: pre">mtp10</tspan></tspan></tspan></text>
 <text class="SVGTextShape"><tspan class="TextParagraph" font-family="Liberation Sans, sans-serif" font-size="353px" font-weight="400"><tspan class="TextPosition" x="10277" y="2145"><tspan fill="rgb(0,0,0)" stroke="none" style="white-space: pre">mtp12</tspan></tspan></tspan></text>
 <text class="SVGTextShape"><tspan class="TextParagraph" font-family="Liberation Sans, sans-serif" font-size="353px" font-weight="400"><tspan class="TextPosition" x="10277" y="2547"><tspan fill="rgb(0,0,0)" stroke="none" style="white-space: pre">mtp14</tspan></tspan></tspan></text>
 <text class="SVGTextShape"><tspan class="TextParagraph" font-family="Liberation Sans, sans-serif" font-size="318px" font-weight="400"><tspan class="TextPosition" x="6116" y="6812"><tspan fill="rgb(0,0,0)" stroke="none" style="white-space: pre">r []</tspan></tspan></tspan></text>
 <text class="SVGTextShape" transform="rotate(-90 373 3480)"><tspan class="TextParagraph" font-family="Liberation Sans, sans-serif" font-size="318px" font-weight="400"><tspan class="TextPosition" x="373" y="3480"><tspan fill="rgb(0,0,0)" stroke="none" style="white-space: pre">g(r)</tspan></tspan></tspan></text>
</svg>